<?xml version="1.0" encoding="utf-8"?>
<!-- Generated by IcoMoon.io -->
<!DOCTYPE svg PUBLIC "-//W3C//DTD SVG 1.1//EN" "http://www.w3.org/Graphics/SVG/1.1/DTD/svg11.dtd">
<svg version="1.1" xmlns="http://www.w3.org/2000/svg" xmlns:xlink="http://www.w3.org/1999/xlink" width="32" height="32" viewBox="0 0 32 32">
<g>
</g>
	<path d="M13 10h-5v-8h5v8zM10 8h1v-4h-1v4z" fill="#000000" />
	<path d="M24 10h-5v-8h5v8zM21 8h1v-4h-1v4z" fill="#000000" />
	<path d="M32 30h-32v-25h6v2h-4v21h28v-21h-4v-2h6z" fill="#000000" />
	<path d="M15 5h2v2h-2v-2z" fill="#000000" />
	<path d="M8 18h16v2h-16v-2z" fill="#000000" />
	<path d="M8 22h16v2h-16v-2z" fill="#000000" />
	<path d="M1 12h30v2h-30v-2z" fill="#000000" />
</svg>
