<?xml version="1.0" encoding="utf-8"?>
<!-- Generated by IcoMoon.io -->
<!DOCTYPE svg PUBLIC "-//W3C//DTD SVG 1.1//EN" "http://www.w3.org/Graphics/SVG/1.1/DTD/svg11.dtd">
<svg version="1.1" xmlns="http://www.w3.org/2000/svg" xmlns:xlink="http://www.w3.org/1999/xlink" width="32" height="32" viewBox="0 0 32 32">
<g>
</g>
	<path d="M16 27c-7.72 0-14-5.383-14-12v-1h4v2h-1.94c0.604 5.046 5.729 9 11.94 9s11.336-3.954 11.94-9h-1.94v-2h4v1c0 6.617-6.28 12-14 12z" fill="#000000" />
	<path d="M16 10c-2.757 0-5-2.243-5-5s2.243-5 5-5 5 2.243 5 5-2.243 5-5 5zM16 2c-1.654 0-3 1.346-3 3s1.346 3 3 3 3-1.346 3-3-1.346-3-3-3z" fill="#000000" />
	<path d="M15 9h2v14h-2v-14z" fill="#000000" />
	<path d="M16 32c-1.654 0-3-1.346-3-3h2c0 0.552 0.448 1 1 1s1-0.448 1-1h2c0 1.654-1.346 3-3 3z" fill="#000000" />
</svg>
