<?xml version="1.0" encoding="utf-8"?>
<!-- Generated by IcoMoon.io -->
<!DOCTYPE svg PUBLIC "-//W3C//DTD SVG 1.1//EN" "http://www.w3.org/Graphics/SVG/1.1/DTD/svg11.dtd">
<svg version="1.1" xmlns="http://www.w3.org/2000/svg" xmlns:xlink="http://www.w3.org/1999/xlink" width="32" height="32" viewBox="0 0 32 32">
<g>
</g>
	<path d="M10.999 31.999c-2.939 0-5.701-1.144-7.778-3.22-4.289-4.289-4.289-11.268 0-15.557l3.535-3.535 15.557 15.555-3.535 3.537c-2.078 2.076-4.84 3.22-7.779 3.22zM6.756 12.516l-2.121 2.121c-3.509 3.51-3.509 9.219 0 12.729 1.699 1.698 3.959 2.634 6.364 2.634 2.405 0 4.666-0.936 6.365-2.634l2.121-2.123-12.729-12.727z" fill="#000000" />
	<path d="M6.049 25.951c-2.729-2.729-2.729-7.171 0-9.9l1.414 1.414c-1.949 1.95-1.949 5.122 0 7.072l-1.414 1.414z" fill="#000000" />
	<path d="M17.829 18.828l-1.415-1.414c0.378-0.378 0.586-0.88 0.586-1.415 0-0.534-0.208-1.036-0.585-1.413-0.756-0.756-2.073-0.756-2.828 0l-1.415-1.414c1.511-1.512 4.146-1.512 5.657 0 0.754 0.754 1.171 1.759 1.171 2.827s-0.417 2.073-1.171 2.829z" fill="#000000" />
	<path d="M23.96 16.348c-0.001-4.963-4.038-9-9-9v-2c6.064 0 10.999 4.935 11 11h-2z" fill="#000000" />
	<path d="M30 15.951c-0.003-7.69-6.262-13.949-13.951-13.951v-2c8.791 0.002 15.947 7.157 15.951 15.951h-2z" fill="#000000" />
</svg>
