<?xml version="1.0" encoding="utf-8"?>
<!-- Generated by IcoMoon.io -->
<!DOCTYPE svg PUBLIC "-//W3C//DTD SVG 1.1//EN" "http://www.w3.org/Graphics/SVG/1.1/DTD/svg11.dtd">
<svg version="1.1" xmlns="http://www.w3.org/2000/svg" xmlns:xlink="http://www.w3.org/1999/xlink" width="32" height="32" viewBox="0 0 32 32">
<g>
</g>
	<path d="M16 15.875c-2.206 0-4-1.794-4-4s1.794-4 4-4 4 1.794 4 4-1.794 4-4 4zM16 9.875c-1.103 0-2 0.897-2 2s0.897 2 2 2 2-0.897 2-2-0.897-2-2-2z" fill="#000000" />
	<path d="M9.223 20.215c-4.289-4.289-4.289-11.268 0-15.557l1.414 1.414c-3.509 3.51-3.509 9.219 0 12.729l-1.414 1.414z" fill="#000000" />
	<path d="M4.669 23.227c-6.215-6.22-6.215-16.339 0-22.559l1.415 1.414c-5.437 5.439-5.437 14.291 0 19.73l-1.415 1.415z" fill="#000000" />
	<path d="M22.779 19.725l-1.414-1.414c3.508-3.509 3.508-9.219 0-12.729l1.415-1.414c4.287 4.29 4.287 11.269-0.001 15.557z" fill="#000000" />
	<path d="M27.331 23.715l-1.415-1.414c5.437-5.44 5.437-14.29 0-19.729l1.414-1.414c6.216 6.218 6.216 16.337 0.001 22.557z" fill="#000000" />
	<path d="M20 23.65h-2v-2.025c0-1.103-0.897-2-2-2s-2 0.897-2 2v2.025h-2v-2.025c0-2.206 1.794-4 4-4s4 1.794 4 4v2.025z" fill="#000000" />
	<path d="M20 31.625h-8v-6.025h8v6.025zM14 29.625h4v-2.025h-4v2.025z" fill="#000000" />
</svg>
