<?xml version="1.0" encoding="utf-8"?>
<!-- Generated by IcoMoon.io -->
<!DOCTYPE svg PUBLIC "-//W3C//DTD SVG 1.1//EN" "http://www.w3.org/Graphics/SVG/1.1/DTD/svg11.dtd">
<svg version="1.1" xmlns="http://www.w3.org/2000/svg" xmlns:xlink="http://www.w3.org/1999/xlink" width="32" height="32" viewBox="0 0 32 32">
<g>
</g>
	<path d="M19.787 8h-6.549l-2.228-1.254 0.98-1.742 1.772 0.996h5.451l1.757-1.098 1.060 1.696z" fill="#000000" />
	<path d="M25.819 23.5h-18.563l-3.468-11.56 0.81-0.356c3.063-1.345 7.112-2.085 11.402-2.085s8.34 0.74 11.402 2.085l0.736 0.323-2.319 11.593zM8.744 21.5h15.437l1.677-8.389c-2.718-1.043-6.181-1.612-9.857-1.612-3.643 0-7.075 0.559-9.781 1.583l2.524 8.418z" fill="#000000" />
	<path d="M10.019 18.787l-1.326-4.422 1.057-0.229c3.973-0.86 8.969-0.827 12.861 0.082l-0.455 1.947c-3.269-0.763-7.424-0.869-10.918-0.278l0.698 2.326-1.917 0.574z" fill="#000000" />
	<path d="M11 25.5h10v2h-10v-2z" fill="#000000" />
	<path d="M0 11h2v10h-2v-10z" fill="#000000" />
	<path d="M16 32c-5.944 0-11.368-3.27-14.153-8.532l1.768-0.936c2.438 4.607 7.183 7.468 12.385 7.468 5.201 0 9.947-2.861 12.386-7.468l1.768 0.936c-2.787 5.262-8.21 8.532-14.154 8.532z" fill="#000000" />
	<path d="M30 11h2v10h-2v-10z" fill="#000000" />
	<path d="M28.386 9.468c-2.439-4.607-7.185-7.468-12.386-7.468-5.202 0-9.947 2.861-12.386 7.468l-1.767-0.936c2.785-5.262 8.209-8.532 14.153-8.532s11.367 3.27 14.153 8.532l-1.767 0.936z" fill="#000000" />
</svg>
