<?xml version="1.0" encoding="utf-8"?>
<!-- Generated by IcoMoon.io -->
<!DOCTYPE svg PUBLIC "-//W3C//DTD SVG 1.1//EN" "http://www.w3.org/Graphics/SVG/1.1/DTD/svg11.dtd">
<svg version="1.1" xmlns="http://www.w3.org/2000/svg" xmlns:xlink="http://www.w3.org/1999/xlink" width="32" height="32" viewBox="0 0 32 32">
<g>
</g>
	<path d="M5 17.004h2v9h-2v-9z" fill="#000000" />
	<path d="M7 17.004h-2c0-4.724 3.047-8.894 7.421-10.402l-4.257-6.606h8.836v2h-5.168l3.801 5.896-1.433 0.293c-4.172 0.85-7.2 4.559-7.2 8.819z" fill="#000000" />
	<path d="M21 32.004h-10c-3.309 0-6-2.691-6-6h2c0 2.206 1.794 4 4 4h10c2.206 0 4-1.794 4-4h2c0 3.309-2.691 6-6 6z" fill="#000000" />
	<path d="M25 17.004h2v9h-2v-9z" fill="#000000" />
	<path d="M27 17.004h-2c0-4.26-3.028-7.969-7.2-8.819l-1.433-0.292 4.794-7.438 1.682 1.084-3.265 5.063c4.375 1.508 7.422 5.678 7.422 10.402z" fill="#000000" />
	<path d="M16 23.988c-1.654 0-3-1.346-3-3h2c0 0.552 0.448 1 1 1s1-0.448 1-1-0.448-1-1-1c-1.654 0-3-1.346-3-3s1.346-3 3-3 3 1.346 3 3h-2c0-0.552-0.448-1-1-1s-1 0.448-1 1 0.448 1 1 1c1.654 0 3 1.346 3 3s-1.346 3-3 3z" fill="#000000" />
	<path d="M15 11.004h2v2.018h-2v-2.018z" fill="#000000" />
	<path d="M15 25.004h2v2.016h-2v-2.016z" fill="#000000" />
</svg>
