<?xml version="1.0" encoding="utf-8"?>
<!-- Generated by IcoMoon.io -->
<!DOCTYPE svg PUBLIC "-//W3C//DTD SVG 1.1//EN" "http://www.w3.org/Graphics/SVG/1.1/DTD/svg11.dtd">
<svg version="1.1" xmlns="http://www.w3.org/2000/svg" xmlns:xlink="http://www.w3.org/1999/xlink" width="32" height="32" viewBox="0 0 32 32">
<g>
</g>
	<path d="M28 20v-2c1.103 0 2-0.897 2-2s-0.897-2-2-2v-2c2.206 0 4 1.794 4 4s-1.794 4-4 4z" fill="#000000" />
	<path d="M26 25h-18v-2h16v-14h-16v-2h18z" fill="#000000" />
	<path d="M14.987 10.808l1.963 0.384-1.971 10.078-1.963-0.384 1.971-10.078z" fill="#000000" />
	<path d="M9.988 10.808l1.963 0.384-1.971 10.078-1.963-0.384 1.971-10.078z" fill="#000000" />
	<path d="M19.987 10.809l1.963 0.384-1.971 10.078-1.963-0.384 1.971-10.078z" fill="#000000" />
	<path d="M6 25h-6v-18h6v18zM2 23h2v-14h-2v14z" fill="#000000" />
</svg>
