<?xml version="1.0" encoding="utf-8"?>
<!-- Generated by IcoMoon.io -->
<!DOCTYPE svg PUBLIC "-//W3C//DTD SVG 1.1//EN" "http://www.w3.org/Graphics/SVG/1.1/DTD/svg11.dtd">
<svg version="1.1" xmlns="http://www.w3.org/2000/svg" xmlns:xlink="http://www.w3.org/1999/xlink" width="32" height="32" viewBox="0 0 32 32">
<g>
</g>
	<path d="M9 4h2v19h-2v-19z" fill="#000000" />
	<path d="M17 4l0.014 13.006-2 0.002-0.014-13.006 2-0.002z" fill="#000000" />
	<path d="M17 4h-2c0-1.103-0.897-2-2-2s-2 0.897-2 2h-2c0-2.206 1.794-4 4-4s4 1.794 4 4z" fill="#000000" />
	<path d="M25.898 32h-17.398l-4.5-6v-7.414l2.293-2.293 1.414 1.414-1.707 1.707v5.919l3.5 4.667h14.66l1.741-12.369-10.287-4.202 0.757-1.852 11.728 4.792z" fill="#000000" />
</svg>
