<?xml version="1.0" encoding="utf-8"?>
<!-- Generated by IcoMoon.io -->
<!DOCTYPE svg PUBLIC "-//W3C//DTD SVG 1.1//EN" "http://www.w3.org/Graphics/SVG/1.1/DTD/svg11.dtd">
<svg version="1.1" xmlns="http://www.w3.org/2000/svg" xmlns:xlink="http://www.w3.org/1999/xlink" width="32" height="32" viewBox="0 0 32 32">
<g>
</g>
	<path d="M5.949 27.998c-1.231 0-2.472-0.377-3.539-1.158-1.292-0.946-2.139-2.34-2.383-3.925-0.245-1.584 0.142-3.168 1.089-4.46 0.948-1.294 2.342-2.141 3.926-2.385l0.305 1.977c-1.056 0.163-1.985 0.728-2.617 1.59-0.631 0.861-0.889 1.918-0.726 2.974s0.727 1.985 1.588 2.616c1.781 1.303 4.288 0.917 5.591-0.861l1.613 1.182c-1.174 1.6-2.999 2.45-4.847 2.45z" fill="#000000" />
	<path d="M26.037 28.002c-0.897 0-1.79-0.203-2.62-0.607-1.441-0.701-2.523-1.922-3.046-3.437-0.523-1.515-0.425-3.143 0.277-4.583l1.798 0.875c-0.468 0.961-0.533 2.046-0.185 3.056 0.349 1.010 1.070 1.823 2.032 2.29 0.961 0.468 2.047 0.532 3.056 0.185 1.010-0.35 1.824-1.071 2.291-2.032 0.468-0.961 0.533-2.045 0.184-3.055s-1.071-1.823-2.033-2.291l0.875-1.799c1.441 0.701 2.524 1.922 3.048 3.436 0.524 1.516 0.426 3.144-0.276 4.584-0.7 1.441-1.92 2.523-3.436 3.047-0.643 0.221-1.306 0.331-1.965 0.331z" fill="#000000" />
	<path d="M24.006 10.736l3 11.001-1.93 0.526-3-11.001 1.93-0.526z" fill="#000000" />
	<path d="M26.8 5.029l0.485 1.939-4 1.001-0.485-1.939 4-1.001z" fill="#000000" />
	<path d="M14.877 9.013l0.329 1.973-6 1.001-0.329-1.973 6-1.001z" fill="#000000" />
	<path d="M15.551 22.999h-11.508l-0.002-2.5 8.629-6.429 10.001-4 0.38 0.951 0.799 0.582-8.299 11.396zM6.708 20.999h7.826l5.672-7.788-6.67 2.667-6.828 5.121z" fill="#000000" />
	<path d="M22.042 8.999h2v3h-2v-3z" fill="#000000" />
</svg>
