<?xml version="1.0" encoding="utf-8"?>
<!-- Generated by IcoMoon.io -->
<!DOCTYPE svg PUBLIC "-//W3C//DTD SVG 1.1//EN" "http://www.w3.org/Graphics/SVG/1.1/DTD/svg11.dtd">
<svg version="1.1" xmlns="http://www.w3.org/2000/svg" xmlns:xlink="http://www.w3.org/1999/xlink" width="32" height="32" viewBox="0 0 32 32">
<g>
</g>
	<path d="M6.95 5.689l1.969 6.001-1.9 0.624-1.969-6 1.9-0.624z" fill="#000000" />
	<path d="M12.981 5.689l1.969 6-1.9 0.624-1.969-6 1.9-0.624z" fill="#000000" />
	<path d="M8 30c-3.309 0-6-2.691-6-6s2.691-6 6-6 6 2.691 6 6-2.691 6-6 6zM8 20c-2.206 0-4 1.794-4 4s1.794 4 4 4 4-1.794 4-4-1.794-4-4-4z" fill="#000000" />
	<path d="M26 30c-3.309 0-6-2.691-6-6s2.691-6 6-6 6 2.691 6 6-2.691 6-6 6zM26 20c-2.206 0-4 1.794-4 4s1.794 4 4 4 4-1.794 4-4-1.794-4-4-4z" fill="#000000" />
	<path d="M20 18.181l-20-3.334v-12.847h32v2h-30v9.153l16 2.666v-9.819h2z" fill="#000000" />
	<path d="M32 18h-2v-4.838l-1.721-5.162h-4.279v6h4v2h-6v-10h7.721l2.279 6.838z" fill="#000000" />
</svg>
