<?xml version="1.0" encoding="utf-8"?>
<!-- Generated by IcoMoon.io -->
<!DOCTYPE svg PUBLIC "-//W3C//DTD SVG 1.1//EN" "http://www.w3.org/Graphics/SVG/1.1/DTD/svg11.dtd">
<svg version="1.1" xmlns="http://www.w3.org/2000/svg" xmlns:xlink="http://www.w3.org/1999/xlink" width="32" height="32" viewBox="0 0 32 32">
<g>
</g>
	<path d="M1 3h30v2h-30v-2z" fill="#000000" />
	<path d="M1 27h30v2h-30v-2z" fill="#000000" />
	<path d="M4 6h2v2h-2v-2z" fill="#000000" />
	<path d="M7 6h2v2h-2v-2z" fill="#000000" />
	<path d="M10 6h2v2h-2v-2z" fill="#000000" />
	<path d="M12 24h-8v-10h8v10zM6 22h4v-6h-4v6z" fill="#000000" />
	<path d="M14 14h7v2h-7v-2z" fill="#000000" />
	<path d="M32 11h-32v-8h32v8zM2 9h28v-4h-28v4z" fill="#000000" />
	<path d="M32 29h-32v-14.995h2v12.995h28v-13.977h2z" fill="#000000" />
	<path d="M14 18h14v2h-14v-2z" fill="#000000" />
	<path d="M14 22h14v2h-14v-2z" fill="#000000" />
</svg>
