<?xml version="1.0" encoding="utf-8"?>
<!-- Generated by IcoMoon.io -->
<!DOCTYPE svg PUBLIC "-//W3C//DTD SVG 1.1//EN" "http://www.w3.org/Graphics/SVG/1.1/DTD/svg11.dtd">
<svg version="1.1" xmlns="http://www.w3.org/2000/svg" xmlns:xlink="http://www.w3.org/1999/xlink" width="32" height="32" viewBox="0 0 32 32">
<g>
</g>
	<path d="M16 32c-5.514 0-10-4.486-10-10s4.486-10 10-10 10 4.486 10 10-4.486 10-10 10zM16 14c-4.411 0-8 3.589-8 8s3.589 8 8 8 8-3.589 8-8-3.589-8-8-8z" fill="#000000" />
	<path d="M12 22h-2c0-3.309 2.691-6 6-6v2c-2.206 0-4 1.794-4 4z" fill="#000000" />
	<path d="M19 10h-2v-2h-2v2h-2v-4h6z" fill="#000000" />
	<path d="M15 3h2v4h-2v-4z" fill="#000000" />
	<path d="M17 3h-2c0-1.654 1.346-3 3-3v2c-0.552 0-1 0.448-1 1z" fill="#000000" />
</svg>
