<?xml version="1.0" encoding="utf-8"?>
<!-- Generated by IcoMoon.io -->
<!DOCTYPE svg PUBLIC "-//W3C//DTD SVG 1.1//EN" "http://www.w3.org/Graphics/SVG/1.1/DTD/svg11.dtd">
<svg version="1.1" xmlns="http://www.w3.org/2000/svg" xmlns:xlink="http://www.w3.org/1999/xlink" width="32" height="32" viewBox="0 0 32 32">
<g>
</g>
	<path d="M14.999 5h2v20h-2v-20z" fill="#000000" />
	<path d="M16.999 32h-2c0-1.654-1.346-3-3-3h-11v-2h11c2.757 0 5 2.243 5 5z" fill="#000000" />
	<path d="M16.999 32h-2c0-2.757 2.243-5 5-5h11v2h-11c-1.654 0-3 1.346-3 3z" fill="#000000" />
	<path d="M13.028 25h-12.029v-25h11c2.757 0 5 2.243 5 5h-2c0-1.654-1.346-3-3-3h-9v21h10.029v2z" fill="#000000" />
	<path d="M30.999 25h-12.027v-2h10.027v-21h-9c-1.654 0-3 1.346-3 3h-2c0-2.757 2.243-5 5-5h11v25z" fill="#000000" />
</svg>
