<?xml version="1.0" encoding="utf-8"?>
<!-- Generated by IcoMoon.io -->
<!DOCTYPE svg PUBLIC "-//W3C//DTD SVG 1.1//EN" "http://www.w3.org/Graphics/SVG/1.1/DTD/svg11.dtd">
<svg version="1.1" xmlns="http://www.w3.org/2000/svg" xmlns:xlink="http://www.w3.org/1999/xlink" width="32" height="32" viewBox="0 0 32 32">
<g>
</g>
	<path d="M19 10h-6v-6h2v4h2v-4h2z" fill="#000000" />
	<path d="M11 0h10v2h-10v-2z" fill="#000000" />
	<path d="M25 32h-18v-15h2v13h14v-13h2z" fill="#000000" />
	<path d="M25 17h-2c0-3.86-3.14-7-7-7s-7 3.14-7 7h-2c0-4.962 4.038-9 9-9s9 4.038 9 9z" fill="#000000" />
	<path d="M13 28h-2v-11c0-2.738 2.243-4.966 5-4.966v2c-1.654 0-3 1.331-3 2.966v11z" fill="#000000" />
</svg>
