<?xml version="1.0" encoding="utf-8"?>
<!-- Generated by IcoMoon.io -->
<!DOCTYPE svg PUBLIC "-//W3C//DTD SVG 1.1//EN" "http://www.w3.org/Graphics/SVG/1.1/DTD/svg11.dtd">
<svg version="1.1" xmlns="http://www.w3.org/2000/svg" xmlns:xlink="http://www.w3.org/1999/xlink" width="32" height="32" viewBox="0 0 32 32">
<g>
</g>
	<path d="M24 15h-4v-2h2v-1c0-5.514-4.486-10-10-10s-10 4.486-10 10v1h2v2h-4v-3c0-6.617 5.383-12 12-12s12 5.383 12 12v3z" fill="#000000" />
	<path d="M22 32h-20v-15h2v13h16v-13h2z" fill="#000000" />
	<path d="M32 15h-4v-2h2v-1c0-5.514-4.486-10-10-10v-2c6.617 0 12 5.383 12 12v3z" fill="#000000" />
	<path d="M30 32h-6v-2h4v-13h2z" fill="#000000" />
</svg>
