<?xml version="1.0" encoding="utf-8"?>
<!-- Generated by IcoMoon.io -->
<!DOCTYPE svg PUBLIC "-//W3C//DTD SVG 1.1//EN" "http://www.w3.org/Graphics/SVG/1.1/DTD/svg11.dtd">
<svg version="1.1" xmlns="http://www.w3.org/2000/svg" xmlns:xlink="http://www.w3.org/1999/xlink" width="32" height="32" viewBox="0 0 32 32">
<g>
</g>
	<path d="M32 31h-32v-13h32v13zM2 29h28v-9h-28v9z" fill="#000000" />
	<path d="M16 23c-1.654 0-3-1.346-3-3h2c0 0.551 0.448 1 1 1s1-0.449 1-1h2c0 1.654-1.346 3-3 3z" fill="#000000" />
	<path d="M23.004 8h-4.004v-2c0-1.654-1.346-3-3-3s-3 1.346-3 3v2h-3.99v-2h1.99c0-2.757 2.243-5 5-5s5 2.243 5 5h2.004v2z" fill="#000000" />
	<path d="M32 16h-2v-4h-28v4h-2v-6h32z" fill="#000000" />
</svg>
