<?xml version="1.0" encoding="utf-8"?>
<!-- Generated by IcoMoon.io -->
<!DOCTYPE svg PUBLIC "-//W3C//DTD SVG 1.1//EN" "http://www.w3.org/Graphics/SVG/1.1/DTD/svg11.dtd">
<svg version="1.1" xmlns="http://www.w3.org/2000/svg" xmlns:xlink="http://www.w3.org/1999/xlink" width="32" height="32" viewBox="0 0 32 32">
<g>
</g>
	<path d="M20.91 21.458l-1.785-0.902 2.532-4.898c3.119-3.119 3.119-8.194 0-11.313s-8.195-3.119-11.314 0-3.119 8.194 0 11.313l0.114 0.114 2.405 4.787-1.787 0.898-2.263-4.502c-3.782-3.909-3.743-10.165 0.117-14.025 3.899-3.899 10.244-3.899 14.143 0 3.86 3.86 3.898 10.117 0.115 14.025l-2.277 4.503z" fill="#000000" />
	<path d="M19.879 22.008l0.24 1.986-8 0.968-0.24-1.986 8-0.968z" fill="#000000" />
	<path d="M19.879 25.008l0.24 1.986-8 0.968-0.24-1.986 8-0.968z" fill="#000000" />
	<path d="M15.977 32c-1.654 0-3-1.346-3-3h2c0 0.551 0.449 1 1 1s1-0.449 1-1h2c0 1.654-1.346 3-3 3z" fill="#000000" />
	<path d="M12 10h-2c0-3.309 2.691-6 6-6v2c-2.206 0-4 1.794-4 4z" fill="#000000" />
</svg>
