<?xml version="1.0" encoding="utf-8"?>
<!-- Generated by IcoMoon.io -->
<!DOCTYPE svg PUBLIC "-//W3C//DTD SVG 1.1//EN" "http://www.w3.org/Graphics/SVG/1.1/DTD/svg11.dtd">
<svg version="1.1" xmlns="http://www.w3.org/2000/svg" xmlns:xlink="http://www.w3.org/1999/xlink" width="32" height="32" viewBox="0 0 32 32">
<g>
</g>
	<path d="M32 32h-32v-32h32v32zM2 30h28v-28h-28v28z" fill="#000000" />
	<path d="M9 6h2v8h-2v-8z" fill="#000000" />
	<path d="M6 9h8v2h-8v-2z" fill="#000000" />
	<path d="M18 9h8v2h-8v-2z" fill="#000000" />
	<path d="M18 19h2v2h-2v-2z" fill="#000000" />
	<path d="M23 23h2v2h-2v-2z" fill="#000000" />
	<path d="M12.293 18.292l1.414 1.414-6 6-1.414-1.414 6-6z" fill="#000000" />
	<path d="M24.293 18.292l1.414 1.414-6 6-1.414-1.414 6-6z" fill="#000000" />
	<path d="M7.707 18.292l6 6-1.414 1.414-6-6 1.414-1.414z" fill="#000000" />
</svg>
