<?xml version="1.0" encoding="utf-8"?>
<!-- Generated by IcoMoon.io -->
<!DOCTYPE svg PUBLIC "-//W3C//DTD SVG 1.1//EN" "http://www.w3.org/Graphics/SVG/1.1/DTD/svg11.dtd">
<svg version="1.1" xmlns="http://www.w3.org/2000/svg" xmlns:xlink="http://www.w3.org/1999/xlink" width="32" height="32" viewBox="0 0 32 32">
<g>
</g>
	<path d="M32 22h-32v-2h30v-2.434l-4.515-2.709 1.030-1.714 5.485 3.291z" fill="#000000" />
	<path d="M1.975 18.225l-1.95-0.45 3.18-13.775h17.597l2.445 11h-18.247v-2h15.753l-1.555-7h-14.403z" fill="#000000" />
	<path d="M24 28c-2.206 0-4-1.794-4-4h2c0 1.103 0.897 2 2 2s2-0.897 2-2h2c0 2.206-1.794 4-4 4z" fill="#000000" />
	<path d="M7 28c-2.206 0-4-1.794-4-4h2c0 1.103 0.897 2 2 2s2-0.897 2-2h2c0 2.206-1.794 4-4 4z" fill="#000000" />
</svg>
