<?xml version="1.0" encoding="utf-8"?>
<!-- Generated by IcoMoon.io -->
<!DOCTYPE svg PUBLIC "-//W3C//DTD SVG 1.1//EN" "http://www.w3.org/Graphics/SVG/1.1/DTD/svg11.dtd">
<svg version="1.1" xmlns="http://www.w3.org/2000/svg" xmlns:xlink="http://www.w3.org/1999/xlink" width="32" height="32" viewBox="0 0 32 32">
<g>
</g>
	<path d="M14.645 28.013l-10.637-10.956 21.522-16.839 6.258 6.257-17.143 21.538zM6.993 17.26l7.503 7.728 14.614-18.361-3.742-3.743-18.375 14.376z" fill="#000000" />
	<path d="M24.371 6.206l1.233 1.576-13.518 10.57-1.233-1.576 13.518-10.57z" fill="#000000" />
	<path d="M4.378 30.449l-2.828-2.828 0.708-0.707c1.169-1.169 1.169-3.072 0-4.242l-0.706-0.707 2.137-2.139 1.415 1.414-0.795 0.796c1.102 1.665 1.102 3.85 0 5.514l0.142 0.143c1.666-1.102 3.851-1.102 5.516 0l0.794-0.794 1.414 1.414-2.138 2.137-0.707-0.707c-1.17-1.17-3.073-1.17-4.243 0l-0.709 0.706z" fill="#000000" />
	<path d="M2.964 27.621l1.414 1.414-2.121 2.121-1.414-1.414 2.121-2.121z" fill="#000000" />
</svg>
