<?xml version="1.0" encoding="utf-8"?>
<!-- Generated by IcoMoon.io -->
<!DOCTYPE svg PUBLIC "-//W3C//DTD SVG 1.1//EN" "http://www.w3.org/Graphics/SVG/1.1/DTD/svg11.dtd">
<svg version="1.1" xmlns="http://www.w3.org/2000/svg" xmlns:xlink="http://www.w3.org/1999/xlink" width="32" height="32" viewBox="0 0 32 32">
<g>
</g>
	<path d="M32 23h-2v-16h-28v16h-2v-18h32z" fill="#000000" />
	<path d="M32 27h-6.5l-3-4h-13l-3 4h-6.5v-2h5.5l3-4h15l3 4h5.5z" fill="#000000" />
	<path d="M10 25h12v2h-12v-2z" fill="#000000" />
	<path d="M21 19l-0.091-0.004-11-1c-0.002 0-0.005 0-0.007 0-2.112 0-3.902-1.793-3.902-3.996 0-2.206 1.794-4 4-4l10.909-0.996c0.003 0 0.006 0 0.008 0 2.845 0 5.083 2.241 5.083 4.996 0 2.757-2.243 5-5 5zM21 11l-10.91 0.996c-1.193 0.004-2.090 0.901-2.090 2.004s0.897 2 2 2l11.042 1c1.635-0.022 2.958-1.359 2.958-3 0-1.654-1.346-3-3-3z" fill="#000000" />
	<path d="M10 13h2v2h-2v-2z" fill="#000000" />
	<path d="M20 13h2v2h-2v-2z" fill="#000000" />
</svg>
