<?xml version="1.0" encoding="utf-8"?>
<!-- Generated by IcoMoon.io -->
<!DOCTYPE svg PUBLIC "-//W3C//DTD SVG 1.1//EN" "http://www.w3.org/Graphics/SVG/1.1/DTD/svg11.dtd">
<svg version="1.1" xmlns="http://www.w3.org/2000/svg" xmlns:xlink="http://www.w3.org/1999/xlink" width="32" height="32" viewBox="0 0 32 32">
<g>
</g>
	<path d="M0 30h32v2h-32v-2z" fill="#000000" />
	<path d="M0 0h2v32h-2v-32z" fill="#000000" />
	<path d="M7 28h2v2h-2v-2z" fill="#000000" />
	<path d="M11 28h2v2h-2v-2z" fill="#000000" />
	<path d="M15 28h2v2h-2v-2z" fill="#000000" />
	<path d="M19 28h2v2h-2v-2z" fill="#000000" />
	<path d="M23 28h2v2h-2v-2z" fill="#000000" />
	<path d="M27 28h2v2h-2v-2z" fill="#000000" />
	<path d="M2.001 24h2v2h-2v-2z" fill="#000000" />
	<path d="M2.001 20h2v2h-2v-2z" fill="#000000" />
	<path d="M2.001 16h2v2h-2v-2z" fill="#000000" />
	<path d="M2.001 12h2v2h-2v-2z" fill="#000000" />
	<path d="M2.001 8h2v2h-2v-2z" fill="#000000" />
	<path d="M2.001 4h2v2h-2v-2z" fill="#000000" />
	<path d="M8.8 22.601l-1.6-1.202 6.624-8.824 5.112 4.085 8.361-8.367 1.415 1.414-9.627 9.633-4.899-3.915z" fill="#000000" />
	<path d="M29.011 17h-2v-7h-7v-2h9z" fill="#000000" />
</svg>
