<?xml version="1.0" encoding="utf-8"?>
<!-- Generated by IcoMoon.io -->
<!DOCTYPE svg PUBLIC "-//W3C//DTD SVG 1.1//EN" "http://www.w3.org/Graphics/SVG/1.1/DTD/svg11.dtd">
<svg version="1.1" xmlns="http://www.w3.org/2000/svg" xmlns:xlink="http://www.w3.org/1999/xlink" width="32" height="32" viewBox="0 0 32 32">
<g>
</g>
	<path d="M10.041 0h12v2h-12v-2z" fill="#000000" />
	<path d="M26.357 32h-20.714l-0.293-0.293c-1.511-1.511-2.346-3.536-2.351-5.704-0.004-2.172 0.825-4.199 2.335-5.71l6.707-6.707v-9.586h2v10.414l-7.293 7.293c-1.131 1.132-1.752 2.655-1.749 4.291 0.003 1.499 0.529 2.904 1.49 4.002h19.021c2.054-2.355 1.97-6.064-0.258-8.293l-7.293-7.293v-10.414h2v9.586l6.707 6.707c3.143 3.144 3.135 8.264-0.016 11.414l-0.293 0.293z" fill="#000000" />
	<path d="M7.215 27.319c-0.142-0.418-0.214-0.863-0.215-1.324-0.003-1.1 0.411-2.12 1.165-2.874l7.003-7 1.414 1.414-7.003 7c-0.375 0.375-0.58 0.892-0.579 1.455 0.001 0.244 0.037 0.477 0.109 0.69l-1.894 0.639z" fill="#000000" />
</svg>
