<?xml version="1.0" encoding="utf-8"?>
<!-- Generated by IcoMoon.io -->
<!DOCTYPE svg PUBLIC "-//W3C//DTD SVG 1.1//EN" "http://www.w3.org/Graphics/SVG/1.1/DTD/svg11.dtd">
<svg version="1.1" xmlns="http://www.w3.org/2000/svg" xmlns:xlink="http://www.w3.org/1999/xlink" width="32" height="32" viewBox="0 0 32 32">
<g>
</g>
	<path d="M28 32h-24v-28h4.016v2h-2.016v24h20v-24h-2.075v-2h4.075z" fill="#000000" />
	<path d="M21.965 8.012h-11.93v-6.012h3.133c0.413-1.164 1.525-2 2.829-2s2.416 0.836 2.829 2h3.139v6.012zM12.035 6.012h7.93v-2.012h-2.968v-1c0-0.551-0.448-1-1-1s-1 0.449-1 1v1h-2.962v2.012z" fill="#000000" />
	<path d="M12.994 13h2v14h-2v-14z" fill="#000000" />
	<path d="M16.993 11h2v16h-2v-16z" fill="#000000" />
	<path d="M20.993 14h2v13h-2v-13z" fill="#000000" />
	<path d="M8.994 20h2v7h-2v-7z" fill="#000000" />
</svg>
