<?xml version="1.0" encoding="utf-8"?>
<!-- Generated by IcoMoon.io -->
<!DOCTYPE svg PUBLIC "-//W3C//DTD SVG 1.1//EN" "http://www.w3.org/Graphics/SVG/1.1/DTD/svg11.dtd">
<svg version="1.1" xmlns="http://www.w3.org/2000/svg" xmlns:xlink="http://www.w3.org/1999/xlink" width="32" height="32" viewBox="0 0 32 32">
<g>
</g>
	<path d="M16 32c-6.617 0-12-5.383-12-12v-6h24v6c0 6.617-5.384 12-12 12zM6 16v4c0 5.514 4.486 10 10 10s10-4.486 10-10v-4h-20z" fill="#000000" />
	<path d="M16 27c-1.646 0-2.986-1.332-3-2.975v-2.025c0-1.654 1.346-3 3-3s3 1.346 3 3v2.025c-0.014 1.643-1.355 2.975-3 2.975zM16 21c-0.551 0-1 0.449-1 1v2c0 0.551 0.449 1 1 1s1-0.449 1-1v-2c0-0.551-0.449-1-1-1z" fill="#000000" />
	<path d="M24 12h-2v-4.314c0-3.135-2.692-5.686-6-5.686s-6 2.551-6 5.686v4.314h-2v-4.314c0-4.239 3.588-7.686 8-7.686s8 3.447 8 7.686v4.314z" fill="#000000" />
</svg>
