<?xml version="1.0" encoding="utf-8"?>
<!-- Generated by IcoMoon.io -->
<!DOCTYPE svg PUBLIC "-//W3C//DTD SVG 1.1//EN" "http://www.w3.org/Graphics/SVG/1.1/DTD/svg11.dtd">
<svg version="1.1" xmlns="http://www.w3.org/2000/svg" xmlns:xlink="http://www.w3.org/1999/xlink" width="32" height="32" viewBox="0 0 32 32">
<g>
</g>
	<path d="M15.996 16h-2c0-0.144-0.005-0.287-0.010-0.43l-0.015-0.135 0.009-0.096c0.32-3.45 3.496-6.295 7.080-6.34l0.025 2c-2.56 0.032-4.83 2.014-5.104 4.436 0.010 0.227 0.015 0.396 0.015 0.565z" fill="#000000" />
	<path d="M20.996 27h-12.991c-4.412 0-8.001-3.589-8.001-8s3.589-8 8-8v2c-3.309 0-6 2.691-6 6s2.692 6 6.001 6h12.991c4.962 0 9-4.037 9-9 0-4.938-3.997-8.959-8.925-9-4.677 0.039-8.66 3.607-9.083 8.155-0.014 0.157-0.006 0.317 0 0.479 0.004 0.121 0.008 0.242 0.008 0.365h-2c0-0.099-0.004-0.196-0.007-0.294-0.009-0.247-0.015-0.492 0.008-0.735 0.515-5.543 5.332-9.895 11-9.97v0l0.15 0.001c5.996 0.081 10.849 4.983 10.849 10.999 0 6.065-4.934 11-11 11z" fill="#000000" />
</svg>
