<?xml version="1.0" encoding="utf-8"?>
<!-- Generated by IcoMoon.io -->
<!DOCTYPE svg PUBLIC "-//W3C//DTD SVG 1.1//EN" "http://www.w3.org/Graphics/SVG/1.1/DTD/svg11.dtd">
<svg version="1.1" xmlns="http://www.w3.org/2000/svg" xmlns:xlink="http://www.w3.org/1999/xlink" width="32" height="32" viewBox="0 0 32 32">
<g>
</g>
	<path d="M24.956 32h-17.912l-1.043-22.955 1.998-0.090 0.957 21.045h14.088l0.957-21.045 1.998 0.090z" fill="#000000" />
	<path d="M4 5h24v2h-24v-2z" fill="#000000" />
	<path d="M24.22 7h-16.44l1.4-7h13.64l1.4 7zM10.22 5h11.56l-0.6-3h-10.36l-0.6 3z" fill="#000000" />
	<path d="M16 24c-2.206 0-4-1.794-4-4s1.794-4 4-4 4 1.794 4 4-1.794 4-4 4zM16 18c-1.103 0-2 0.897-2 2s0.897 2 2 2 2-0.897 2-2-0.897-2-2-2z" fill="#000000" />
	<path d="M10 12h12v2h-12v-2z" fill="#000000" />
	<path d="M10 26h12v2h-12v-2z" fill="#000000" />
</svg>
