<?xml version="1.0" encoding="utf-8"?>
<!-- Generated by IcoMoon.io -->
<!DOCTYPE svg PUBLIC "-//W3C//DTD SVG 1.1//EN" "http://www.w3.org/Graphics/SVG/1.1/DTD/svg11.dtd">
<svg version="1.1" xmlns="http://www.w3.org/2000/svg" xmlns:xlink="http://www.w3.org/1999/xlink" width="32" height="32" viewBox="0 0 32 32">
<g>
</g>
	<path d="M25 15c-3.859 0-7-3.14-7-7h2c0 2.757 2.243 5 5 5s5-2.243 5-5-2.243-5-5-5h-18c-2.757 0-5 2.243-5 5s2.243 5 5 5 5-2.243 5-5h2c0 3.86-3.141 7-7 7s-7-3.14-7-7 3.141-7 7-7h18c3.859 0 7 3.14 7 7s-3.141 7-7 7z" fill="#000000" />
	<path d="M14 13h4v2h-4v-2z" fill="#000000" />
	<path d="M6 17h2v14h-2v-14z" fill="#000000" />
	<path d="M12 17h2v14h-2v-14z" fill="#000000" />
	<path d="M18 17h2v14h-2v-14z" fill="#000000" />
	<path d="M24 17h2v14h-2v-14z" fill="#000000" />
	<path d="M6.069 8h-2c0-1.654 1.346-3 3-3v2c-0.551 0-1 0.449-1 1z" fill="#000000" />
	<path d="M24.069 8h-2c0-1.654 1.346-3 3-3v2c-0.551 0-1 0.449-1 1z" fill="#000000" />
</svg>
