<?xml version="1.0" encoding="utf-8"?>
<!-- Generated by IcoMoon.io -->
<!DOCTYPE svg PUBLIC "-//W3C//DTD SVG 1.1//EN" "http://www.w3.org/Graphics/SVG/1.1/DTD/svg11.dtd">
<svg version="1.1" xmlns="http://www.w3.org/2000/svg" xmlns:xlink="http://www.w3.org/1999/xlink" width="32" height="32" viewBox="0 0 32 32">
<g>
</g>
	<path d="M15.974 16c-2.757 0-5-2.243-5-5s2.243-5 5-5 5 2.243 5 5-2.244 5-5 5zM15.974 8c-1.654 0-3 1.346-3 3s1.346 3 3 3 3-1.346 3-3-1.346-3-3-3z" fill="#000000" />
	<path d="M16.251 25.135c-1.931 0-3.885-0.507-5.656-1.574l1.031-1.713c4.251 2.558 9.794 1.185 12.354-3.066l1.713 1.031c-2.062 3.424-5.709 5.322-9.442 5.322z" fill="#000000" />
	<path d="M14.974 0h2v4h-2v-4z" fill="#000000" />
	<path d="M12.011 16.721l1.92 0.557-4.060 14.001-1.92-0.557 4.060-14.001z" fill="#000000" />
	<path d="M19.87 16.723l4.063 14.001-1.92 0.557-4.063-14.001 1.92-0.557z" fill="#000000" />
</svg>
