<?xml version="1.0" encoding="utf-8"?>
<!-- Generated by IcoMoon.io -->
<!DOCTYPE svg PUBLIC "-//W3C//DTD SVG 1.1//EN" "http://www.w3.org/Graphics/SVG/1.1/DTD/svg11.dtd">
<svg version="1.1" xmlns="http://www.w3.org/2000/svg" xmlns:xlink="http://www.w3.org/1999/xlink" width="32" height="32" viewBox="0 0 32 32">
<g>
</g>
	<path d="M16 32c-7.72 0-14-6.28-14-14 0-6.527 4.429-12.129 10.771-13.624l0.459 1.946c-5.435 1.282-9.23 6.083-9.23 11.678 0 6.617 5.383 12 12 12s12-5.383 12-12c0-5.595-3.795-10.396-9.229-11.677l0.459-1.946c6.341 1.494 10.77 7.096 10.77 13.623 0 7.72-6.28 14-14 14z" fill="#000000" />
	<path d="M15 0h2v6h-2v-6z" fill="#000000" />
	<path d="M13 0h6v2h-6v-2z" fill="#000000" />
	<path d="M9.404 24.577l2.655-7.89 1.896 0.638-1.375 4.085 4.096-1.366 0.633 1.898z" fill="#000000" />
	<path d="M19.941 19.313l-1.896-0.638 1.375-4.085-4.096 1.366-0.633-1.898 7.905-2.635z" fill="#000000" />
</svg>
