<?xml version="1.0" encoding="utf-8"?>
<!-- Generated by IcoMoon.io -->
<!DOCTYPE svg PUBLIC "-//W3C//DTD SVG 1.1//EN" "http://www.w3.org/Graphics/SVG/1.1/DTD/svg11.dtd">
<svg version="1.1" xmlns="http://www.w3.org/2000/svg" xmlns:xlink="http://www.w3.org/1999/xlink" width="32" height="32" viewBox="0 0 32 32">
<g>
</g>
	<path d="M16 28c-6.065 0-11-4.935-11-11s4.935-11 11-11 11 4.935 11 11-4.935 11-11 11zM16 8c-4.962 0-9 4.038-9 9s4.038 9 9 9 9-4.038 9-9-4.038-9-9-9z" fill="#000000" />
	<path d="M11 17h-2c0-3.86 3.14-7 7-7v2c-2.757 0-5 2.243-5 5z" fill="#000000" />
	<path d="M6 28h-6v-20h6v2h-4v16h4z" fill="#000000" />
	<path d="M32 28h-6v-2h4v-16h-4v-2h6z" fill="#000000" />
	<path d="M2 4h4v2h-4v-2z" fill="#000000" />
</svg>
