<?xml version="1.0" encoding="utf-8"?>
<!-- Generated by IcoMoon.io -->
<!DOCTYPE svg PUBLIC "-//W3C//DTD SVG 1.1//EN" "http://www.w3.org/Graphics/SVG/1.1/DTD/svg11.dtd">
<svg version="1.1" xmlns="http://www.w3.org/2000/svg" xmlns:xlink="http://www.w3.org/1999/xlink" width="32" height="32" viewBox="0 0 32 32">
<g>
</g>
	<path d="M23.031 28h-14.052c-4.951 0-8.979-4.037-8.979-9s4.023-9 8.969-9h15.051c4.177 0 7.98 4.29 7.98 9 0 4.963-4.023 9-8.969 9zM8.969 12c-3.843 0-6.969 3.141-6.969 7s3.131 7 6.979 7h14.052c3.843 0 6.969-3.141 6.969-7 0-3.942-3.215-7-5.98-7h-15.051z" fill="#000000" />
	<path d="M8 15h2v8h-2v-8z" fill="#000000" />
	<path d="M5 18h8v2h-8v-2z" fill="#000000" />
	<path d="M17 8h-2v-2c0-1.654 1.346-3 3-3v2c-0.552 0-1 0.448-1 1v2z" fill="#000000" />
	<path d="M20.414 18.794c-0.39-0.39-1.023-0.39-1.415-0.001l-1.414-1.414c1.17-1.17 3.071-1.169 4.243-0.001l-1.414 1.416z" fill="#000000" />
	<path d="M17.587 21.623c-0.566-0.566-0.879-1.32-0.879-2.121 0-0.802 0.312-1.555 0.879-2.122l1.414 1.416c-0.189 0.188-0.293 0.439-0.293 0.706s0.104 0.518 0.293 0.707l-1.414 1.414z" fill="#000000" />
	<path d="M26.414 18.794c-0.39-0.39-1.023-0.39-1.415-0.001l-1.414-1.414c1.17-1.17 3.071-1.169 4.243-0.001l-1.414 1.416z" fill="#000000" />
	<path d="M23.587 21.623c-0.566-0.566-0.879-1.32-0.879-2.121-0.001-0.802 0.312-1.555 0.879-2.122l1.414 1.416c-0.189 0.188-0.293 0.439-0.293 0.706s0.104 0.518 0.293 0.707l-1.414 1.414z" fill="#000000" />
</svg>
