<?xml version="1.0" encoding="utf-8"?>
<!-- Generated by IcoMoon.io -->
<!DOCTYPE svg PUBLIC "-//W3C//DTD SVG 1.1//EN" "http://www.w3.org/Graphics/SVG/1.1/DTD/svg11.dtd">
<svg version="1.1" xmlns="http://www.w3.org/2000/svg" xmlns:xlink="http://www.w3.org/1999/xlink" width="32" height="32" viewBox="0 0 32 32">
<g>
</g>
	<path d="M26 8h-20c-2.206 0-4-1.794-4-4s1.794-4 4-4h20c2.206 0 4 1.794 4 4s-1.794 4-4 4zM6 2c-1.103 0-2 0.897-2 2s0.897 2 2 2h20c1.103 0 2-0.897 2-2s-0.897-2-2-2h-20z" fill="#000000" />
	<path d="M17 32.004l-2-0.008 0.018-4.569-2.467-2.41 4.078-3.996-4.024-3.978 2.395-2.45v-4.593h2v5.407l-1.574 1.612 4.054 4.007-4.070 3.989 1.611 1.573z" fill="#000000" />
</svg>
