<?xml version="1.0" encoding="utf-8"?>
<!-- Generated by IcoMoon.io -->
<!DOCTYPE svg PUBLIC "-//W3C//DTD SVG 1.1//EN" "http://www.w3.org/Graphics/SVG/1.1/DTD/svg11.dtd">
<svg version="1.1" xmlns="http://www.w3.org/2000/svg" xmlns:xlink="http://www.w3.org/1999/xlink" width="32" height="32" viewBox="0 0 32 32">
<g>
</g>
	<path d="M16 19c-4.962 0-9-4.038-9-9v-10h18v10c0 4.962-4.038 9-9 9zM9 2v8c0 3.86 3.14 7 7 7s7-3.14 7-7v-8h-14z" fill="#000000" />
	<path d="M16 15c-2.757 0-5-2.243-5-5v-5h2v5c0 1.654 1.346 3 3 3v2z" fill="#000000" />
	<path d="M15 23.5h2v7.5h-2v-7.5z" fill="#000000" />
	<path d="M7 30h18v2h-18v-2z" fill="#000000" />
	<path d="M27 10v-2c1.654 0 3-1.346 3-3v-1h-3v-2h5v3c0 2.757-2.243 5-5 5z" fill="#000000" />
	<path d="M5 10c-2.757 0-5-2.243-5-5v-3h5v2h-3v1c0 1.654 1.346 3 3 3v2z" fill="#000000" />
	<path d="M16 25c-2.206 0-4-1.794-4-4h2c0 1.103 0.897 2 2 2s2-0.897 2-2h2c0 2.206-1.794 4-4 4z" fill="#000000" />
</svg>
