<?xml version="1.0" encoding="utf-8"?>
<!-- Generated by IcoMoon.io -->
<!DOCTYPE svg PUBLIC "-//W3C//DTD SVG 1.1//EN" "http://www.w3.org/Graphics/SVG/1.1/DTD/svg11.dtd">
<svg version="1.1" xmlns="http://www.w3.org/2000/svg" xmlns:xlink="http://www.w3.org/1999/xlink" width="32" height="32" viewBox="0 0 32 32">
<g>
</g>
	<path d="M16 31.995c-3.329 0-6.658-1.267-9.192-3.802-5.069-5.069-5.069-13.316 0-18.385l1.414 1.414c-4.289 4.289-4.289 11.268 0 15.557s11.268 4.29 15.557 0c4.287-4.29 4.288-11.269 0-15.557l1.414-1.414c5.067 5.068 5.067 13.316 0 18.385-2.534 2.535-5.863 3.802-9.193 3.802z" fill="#000000" />
	<path d="M15.998 14.331l-9.194-8.081 1.295-2.684 1.801 0.869-0.634 1.316 6.735 5.919 6.759-5.913-0.655-1.309 1.79-0.895 1.345 2.691z" fill="#000000" />
	<path d="M9 0h14v2h-14v-2z" fill="#000000" />
	<path d="M13 4h6v2h-6v-2z" fill="#000000" />
</svg>
