<?xml version="1.0" encoding="utf-8"?>
<!-- Generated by IcoMoon.io -->
<!DOCTYPE svg PUBLIC "-//W3C//DTD SVG 1.1//EN" "http://www.w3.org/Graphics/SVG/1.1/DTD/svg11.dtd">
<svg version="1.1" xmlns="http://www.w3.org/2000/svg" xmlns:xlink="http://www.w3.org/1999/xlink" width="32" height="32" viewBox="0 0 32 32">
<g>
</g>
	<path d="M17 32c-2.206 0-4-1.794-4-4v-3.649l-3.48-4.351h-1.52v-2h2.48l4.52 5.649v4.351c0 1.103 0.897 2 2 2s2-0.897 2-2h2c0 2.206-1.794 4-4 4z" fill="#000000" />
	<path d="M21 28h-2v-9.836l0.822-0.179 9.95-1.795-3.524-14.19h-9.108l-7.14 2h-2v-2h1.86l7.14-2h10.812l4.416 17.779-11.228 2.026z" fill="#000000" />
	<path d="M6 20h-6v-18h6v18zM2 18h2v-14h-2v14z" fill="#000000" />
</svg>
