<?xml version="1.0" encoding="utf-8"?>
<!-- Generated by IcoMoon.io -->
<!DOCTYPE svg PUBLIC "-//W3C//DTD SVG 1.1//EN" "http://www.w3.org/Graphics/SVG/1.1/DTD/svg11.dtd">
<svg version="1.1" xmlns="http://www.w3.org/2000/svg" xmlns:xlink="http://www.w3.org/1999/xlink" width="32" height="32" viewBox="0 0 32 32">
<g>
</g>
	<path d="M32 26h-32v-20h32v20zM2 24h28v-16h-28v16z" fill="#000000" />
	<path d="M16 22c-3.309 0-6-2.691-6-6s2.691-6 6-6 6 2.691 6 6-2.691 6-6 6zM16 12c-2.206 0-4 1.794-4 4s1.794 4 4 4 4-1.794 4-4-1.794-4-4-4z" fill="#000000" />
	<path d="M4 10h4v2h-4v-2z" fill="#000000" />
	<path d="M24 10h4v2h-4v-2z" fill="#000000" />
	<path d="M24 20h4v2h-4v-2z" fill="#000000" />
	<path d="M4 20h4v2h-4v-2z" fill="#000000" />
</svg>
