<?xml version="1.0" encoding="utf-8"?>
<!-- Generated by IcoMoon.io -->
<!DOCTYPE svg PUBLIC "-//W3C//DTD SVG 1.1//EN" "http://www.w3.org/Graphics/SVG/1.1/DTD/svg11.dtd">
<svg version="1.1" xmlns="http://www.w3.org/2000/svg" xmlns:xlink="http://www.w3.org/1999/xlink" width="32" height="32" viewBox="0 0 32 32">
<g>
</g>
	<path d="M26 22h-26v-16h26v16zM2 20h22v-12h-22v12z" fill="#000000" />
	<path d="M32 28h-26v-4.027h2v2.027h22v-12h-2.013v-2h4.013z" fill="#000000" />
	<path d="M13 18c-2.206 0-4-1.794-4-4s1.794-4 4-4 4 1.794 4 4-1.794 4-4 4zM13 12c-1.103 0-2 0.897-2 2s0.897 2 2 2 2-0.897 2-2-0.897-2-2-2z" fill="#000000" />
	<path d="M4 10h2v2h-2v-2z" fill="#000000" />
	<path d="M4 16h2v2h-2v-2z" fill="#000000" />
	<path d="M20 10h2v2h-2v-2z" fill="#000000" />
	<path d="M20 16h2v2h-2v-2z" fill="#000000" />
</svg>
