<?xml version="1.0" encoding="utf-8"?>
<!-- Generated by IcoMoon.io -->
<!DOCTYPE svg PUBLIC "-//W3C//DTD SVG 1.1//EN" "http://www.w3.org/Graphics/SVG/1.1/DTD/svg11.dtd">
<svg version="1.1" xmlns="http://www.w3.org/2000/svg" xmlns:xlink="http://www.w3.org/1999/xlink" width="32" height="32" viewBox="0 0 32 32">
<g>
</g>
	<path d="M20.996 25v-2c4.963 0 9-4.037 9-9 0-4.938-3.997-8.959-8.925-9-4.677 0.039-8.659 3.607-9.083 8.155-0.014 0.157-0.006 0.317 0 0.479 0.004 0.121 0.008 0.242 0.008 0.365h-2c0-0.099-0.004-0.196-0.007-0.294-0.009-0.247-0.015-0.492 0.008-0.735 0.515-5.543 5.332-9.895 10.999-9.97v0l0.15 0.001c5.997 0.081 10.85 4.983 10.85 10.999 0 6.065-4.934 11-11 11z" fill="#000000" />
	<path d="M15.997 14h-2c0-0.144-0.005-0.287-0.010-0.43l-0.015-0.135 0.009-0.096c0.32-3.45 3.496-6.295 7.079-6.34l0.025 2c-2.56 0.032-4.829 2.014-5.104 4.436 0.011 0.227 0.016 0.396 0.016 0.565z" fill="#000000" />
	<path d="M10.996 25h-2.99c-4.412 0-8.002-3.589-8.002-8s3.588-8 7.999-8v2c-3.308 0-5.999 2.691-5.999 6s2.692 6 6.002 6h2.99v2z" fill="#000000" />
	<path d="M14.996 20h2v8h-2v-8z" fill="#000000" />
	<path d="M15.995 29.203l-3.682-3.476 1.374-1.454 2.31 2.18 2.317-2.182 1.372 1.458z" fill="#000000" />
</svg>
