<?xml version="1.0" encoding="utf-8"?>
<!-- Generated by IcoMoon.io -->
<!DOCTYPE svg PUBLIC "-//W3C//DTD SVG 1.1//EN" "http://www.w3.org/Graphics/SVG/1.1/DTD/svg11.dtd">
<svg version="1.1" xmlns="http://www.w3.org/2000/svg" xmlns:xlink="http://www.w3.org/1999/xlink" width="32" height="32" viewBox="0 0 32 32">
<g>
</g>
	<path d="M15.999 31.195c-2.938 0-5.7-1.145-7.777-3.223-4.288-4.288-4.288-11.267 0-15.557l1.414 1.414c-3.508 3.51-3.508 9.22 0 12.729 1.7 1.7 3.96 2.637 6.363 2.637 2.404 0 4.664-0.937 6.365-2.637 1.7-1.7 2.636-3.959 2.636-6.363 0-2.404-0.936-4.665-2.636-6.365l1.414-1.414c2.078 2.078 3.222 4.84 3.222 7.779 0 2.938-1.144 5.7-3.222 7.777-2.078 2.078-4.84 3.223-7.779 3.223z" fill="#000000" />
	<path d="M11.051 25.144c-1.32-1.32-2.048-3.078-2.048-4.95s0.728-3.63 2.048-4.951l1.414 1.414c-0.942 0.943-1.462 2.199-1.462 3.537 0 1.337 0.52 2.593 1.462 3.536l-1.414 1.414z" fill="#000000" />
	<path d="M20.152 10.335l-4.152-6.643-4.152 6.643-1.696-1.060 5.848-9.357 5.848 9.358z" fill="#000000" />
</svg>
