<?xml version="1.0" encoding="utf-8"?>
<!-- Generated by IcoMoon.io -->
<!DOCTYPE svg PUBLIC "-//W3C//DTD SVG 1.1//EN" "http://www.w3.org/Graphics/SVG/1.1/DTD/svg11.dtd">
<svg version="1.1" xmlns="http://www.w3.org/2000/svg" xmlns:xlink="http://www.w3.org/1999/xlink" width="32" height="32" viewBox="0 0 32 32">
<g>
</g>
	<path d="M32 29h-8v-2h6v-17h-6.566l-3-5h-8.868l-3 5h-6.566v17h6v2h-8v-21h7.434l3-5h11.132l3 5h7.434z" fill="#000000" />
	<path d="M16 29c-4.962 0-9-4.038-9-9s4.038-9 9-9 9 4.038 9 9-4.038 9-9 9zM16 13c-3.86 0-7 3.14-7 7s3.14 7 7 7 7-3.14 7-7-3.14-7-7-7z" fill="#000000" />
	<path d="M26 12h2v2h-2v-2z" fill="#000000" />
	<path d="M13 20h-2c0-2.757 2.243-5 5-5v2c-1.654 0-3 1.346-3 3z" fill="#000000" />
</svg>
