<?xml version="1.0" encoding="utf-8"?>
<!-- Generated by IcoMoon.io -->
<!DOCTYPE svg PUBLIC "-//W3C//DTD SVG 1.1//EN" "http://www.w3.org/Graphics/SVG/1.1/DTD/svg11.dtd">
<svg version="1.1" xmlns="http://www.w3.org/2000/svg" xmlns:xlink="http://www.w3.org/1999/xlink" width="32" height="32" viewBox="0 0 32 32">
<g>
</g>
	<path d="M32 31h-32v-27h16v2h-14v23h28v-14h2z" fill="#000000" />
	<path d="M17.12 21.537l-1.885-3.771-3.773-1.885 11.589-11.588 1.414 1.414-9.626 9.625 1.887 0.943 0.942 1.885 9.625-9.625 1.414 1.414z" fill="#000000" />
	<path d="M30.121 8.535l-5.656-5.656 0.706-0.707c0.755-0.756 1.76-1.172 2.828-1.172 1.069 0 2.073 0.416 2.829 1.172 0.755 0.753 1.171 1.756 1.172 2.824 0.001 1.070-0.415 2.076-1.172 2.832l-0.707 0.707zM27.481 3.067l2.451 2.45c0.046-0.166 0.068-0.341 0.068-0.519 0-0.534-0.208-1.035-0.585-1.411-0.505-0.505-1.264-0.699-1.934-0.52z" fill="#000000" />
	<path d="M7.192 25.807l2.754-8.26 1.897 0.633-1.489 4.466 4.466-1.488 0.633 1.897z" fill="#000000" />
</svg>
