<?xml version="1.0" encoding="utf-8"?>
<!-- Generated by IcoMoon.io -->
<!DOCTYPE svg PUBLIC "-//W3C//DTD SVG 1.1//EN" "http://www.w3.org/Graphics/SVG/1.1/DTD/svg11.dtd">
<svg version="1.1" xmlns="http://www.w3.org/2000/svg" xmlns:xlink="http://www.w3.org/1999/xlink" width="32" height="32" viewBox="0 0 32 32">
<g>
</g>
	<path d="M23.198 32h-18.396l2.215-12.179 1.966 0.358-1.785 9.821h13.604l-1.785-9.821 1.966-0.358z" fill="#000000" />
	<path d="M10.741 20.569l1.978 0.295-0.936 6.284-1.978-0.295 0.936-6.284z" fill="#000000" />
	<path d="M21 18h-14v-7.697l-2.868-4.303h16.868v12zM9 16h10v-8h-11.132l1.132 1.697v6.303z" fill="#000000" />
	<path d="M18 4h-2c0-1.103-0.897-2-2-2s-2 0.897-2 2h-2c0-2.206 1.794-4 4-4s4 1.794 4 4z" fill="#000000" />
	<path d="M24 18h-1.038v-2h1.038c0.552 0 1-0.449 1-1v-4c0-0.551-0.448-1-1-1h-1.038v-2h1.038c1.654 0 3 1.346 3 3v4.025c-0.014 1.643-1.354 2.975-3 2.975z" fill="#000000" />
</svg>
