<?xml version="1.0" encoding="utf-8"?>
<!-- Generated by IcoMoon.io -->
<!DOCTYPE svg PUBLIC "-//W3C//DTD SVG 1.1//EN" "http://www.w3.org/Graphics/SVG/1.1/DTD/svg11.dtd">
<svg version="1.1" xmlns="http://www.w3.org/2000/svg" xmlns:xlink="http://www.w3.org/1999/xlink" width="32" height="32" viewBox="0 0 32 32">
<g>
</g>
	<path d="M26 15h-8.998v-9h2v7h6.998z" fill="#000000" />
	<path d="M30.294 0.293l1.414 1.414-12.071 12.071-1.414-1.414 12.071-12.071z" fill="#000000" />
	<path d="M15 26h-2v-6.998h-7v-2h9z" fill="#000000" />
	<path d="M12.365 18.222l1.414 1.414-12.071 12.071-1.414-1.414 12.071-12.071z" fill="#000000" />
	<path d="M2 7.035h-2v-6.998h6.998v2h-4.998z" fill="#000000" />
	<path d="M0 9.037h2v5.998h-2v-5.998z" fill="#000000" />
	<path d="M9.002 0.035h5.998v2h-5.998v-2z" fill="#000000" />
	<path d="M32 31.998h-6.998v-2h4.998v-4.998h2z" fill="#000000" />
	<path d="M30 17h2v5.998h-2v-5.998z" fill="#000000" />
	<path d="M17 30h6v2h-6v-2z" fill="#000000" />
</svg>
