<?xml version="1.0" encoding="utf-8"?>
<!-- Generated by IcoMoon.io -->
<!DOCTYPE svg PUBLIC "-//W3C//DTD SVG 1.1//EN" "http://www.w3.org/Graphics/SVG/1.1/DTD/svg11.dtd">
<svg version="1.1" xmlns="http://www.w3.org/2000/svg" xmlns:xlink="http://www.w3.org/1999/xlink" width="32" height="32" viewBox="0 0 32 32">
<g>
</g>
	<path d="M30.008 15.128c-0.666-5.14-6.77-9.128-13.931-9.128-0.053 0-0.105 0-0.159 0-7.238 0.060-13.355 4.062-13.924 9.112l-1.988-0.225c0.693-6.137 7.527-10.818 15.896-10.887 0.057 0 0.115 0 0.173 0 8.149 0 15.123 4.751 15.917 10.872l-1.984 0.256z" fill="#000000" />
	<path d="M15.927 28c-8.152 0-15.126-4.75-15.919-10.872l1.984-0.257c0.665 5.141 6.77 9.129 13.933 9.129 0.053 0 0.105 0 0.159 0 7.237-0.060 13.354-4.062 13.922-9.112l1.988 0.224c-0.692 6.138-7.524 10.819-15.894 10.888-0.057 0-0.116 0-0.173 0z" fill="#000000" />
	<path d="M15.999 24c-4.374 0-7.962-3.559-7.998-7.934-0.037-4.41 3.522-8.029 7.934-8.066 4.441 0 8.030 3.559 8.065 7.934 0.018 2.137-0.798 4.153-2.296 5.676-1.499 1.523-3.501 2.372-5.637 2.39h-0.068zM16.001 10c-3.358 0.027-6.027 2.742-6 6.050 0.027 3.281 2.718 5.95 5.998 5.95v1l0.051-1c1.603-0.013 3.104-0.65 4.229-1.792 1.123-1.143 1.735-2.654 1.722-4.257-0.027-3.282-2.719-5.951-6-5.951z" fill="#000000" />
	<path d="M12 16.034c-0.019-2.206 1.762-4.016 3.968-4.034l0.016 2c-1.103 0.009-1.992 0.914-1.983 2.017l-2.001 0.017z" fill="#000000" />
</svg>
