<?xml version="1.0" encoding="utf-8"?>
<!-- Generated by IcoMoon.io -->
<!DOCTYPE svg PUBLIC "-//W3C//DTD SVG 1.1//EN" "http://www.w3.org/Graphics/SVG/1.1/DTD/svg11.dtd">
<svg version="1.1" xmlns="http://www.w3.org/2000/svg" xmlns:xlink="http://www.w3.org/1999/xlink" width="32" height="32" viewBox="0 0 32 32">
<g>
</g>
	<path d="M16 8c-2.206 0-4-1.794-4-4s1.794-4 4-4 4 1.794 4 4-1.794 4-4 4zM16 2c-1.103 0-2 0.897-2 2s0.897 2 2 2 2-0.897 2-2-0.897-2-2-2z" fill="#000000" />
	<path d="M9.998 21.056l-1.996-0.112 0.523-9.425 3.825-3.278 1.3 1.518-3.175 2.722z" fill="#000000" />
	<path d="M22.002 21.056l-0.477-8.575-3.175-2.722 1.3-1.518 3.825 3.278 0.523 9.425z" fill="#000000" />
	<path d="M22.247 25h-12.494l2.27-10.217 1.954 0.434-1.73 7.783h7.506l-1.73-7.783 1.954-0.434z" fill="#000000" />
	<path d="M18.907 32h-5.814l-0.476-4.876 1.99-0.193 0.3 3.069h2.186l0.308-3.163 1.991 0.193z" fill="#000000" />
</svg>
