<?xml version="1.0" encoding="utf-8"?>
<!-- Generated by IcoMoon.io -->
<!DOCTYPE svg PUBLIC "-//W3C//DTD SVG 1.1//EN" "http://www.w3.org/Graphics/SVG/1.1/DTD/svg11.dtd">
<svg version="1.1" xmlns="http://www.w3.org/2000/svg" xmlns:xlink="http://www.w3.org/1999/xlink" width="32" height="32" viewBox="0 0 32 32">
<g>
</g>
	<path d="M16 25c-2.968 0-5.439-2.166-5.917-5h-10.225l2.151-16.132 1.982 0.265-1.849 13.867h9.858v1c0 2.206 1.794 4 4 4s4-1.794 4-4v-1h9.857l-1.848-13.868 1.982-0.265 2.152 16.133h-10.226c-0.478 2.834-2.949 5-5.917 5z" fill="#000000" />
	<path d="M32 31h-32v-9h2v7h28v-7h2z" fill="#000000" />
	<path d="M26 16h-2v-13h-16v13h-2v-15h20z" fill="#000000" />
	<path d="M10 5h5v2h-5v-2z" fill="#000000" />
	<path d="M10 9h12v2h-12v-2z" fill="#000000" />
	<path d="M10 13h12v2h-12v-2z" fill="#000000" />
</svg>
