<?xml version="1.0" encoding="utf-8"?>
<!-- Generated by IcoMoon.io -->
<!DOCTYPE svg PUBLIC "-//W3C//DTD SVG 1.1//EN" "http://www.w3.org/Graphics/SVG/1.1/DTD/svg11.dtd">
<svg version="1.1" xmlns="http://www.w3.org/2000/svg" xmlns:xlink="http://www.w3.org/1999/xlink" width="32" height="32" viewBox="0 0 32 32">
<g>
</g>
	<path d="M4 0h2v32h-2v-32z" fill="#000000" />
	<path d="M13.188 21.919c-1.386 0-2.899-0.266-4.588-1.003l0.8-1.832c3.333 1.454 5.753 0.728 8.314-0.041 2.343-0.705 4.961-1.491 8.286-0.479v-13.89c-3.025-1.119-5.305-0.437-7.712 0.284-2.663 0.801-5.684 1.707-9.688-0.042l0.8-1.832c3.333 1.454 5.753 0.728 8.314-0.041 2.663-0.8 5.682-1.707 9.686 0.040l0.6 0.263v18.182l-1.399-0.61c-3.331-1.453-5.749-0.727-8.313 0.041-1.54 0.462-3.2 0.96-5.1 0.96z" fill="#000000" />
</svg>
