<?xml version="1.0" encoding="utf-8"?>
<!-- Generated by IcoMoon.io -->
<!DOCTYPE svg PUBLIC "-//W3C//DTD SVG 1.1//EN" "http://www.w3.org/Graphics/SVG/1.1/DTD/svg11.dtd">
<svg version="1.1" xmlns="http://www.w3.org/2000/svg" xmlns:xlink="http://www.w3.org/1999/xlink" width="32" height="32" viewBox="0 0 32 32">
<g>
</g>
	<path d="M10.218 32c-3.004 0-5.564-0.973-7.404-2.813-4.978-4.977-3.112-14.942 4.159-22.214 4.366-4.366 9.902-6.973 14.809-6.973 3.004 0 5.564 0.973 7.405 2.814 4.977 4.977 3.111 14.942-4.159 22.214-4.368 4.366-9.904 6.972-14.81 6.972zM21.782 2c-4.388 0-9.395 2.388-13.395 6.387-6.491 6.492-8.357 15.188-4.159 19.386 1.457 1.457 3.528 2.227 5.99 2.227 4.388 0 9.396-2.387 13.396-6.386 6.49-6.492 8.356-15.188 4.159-19.386-1.458-1.457-3.529-2.228-5.991-2.228z" fill="#000000" />
	<path d="M22.364 8.222l1.414 1.414-14.143 14.143-1.414-1.414 14.143-14.143z" fill="#000000" />
	<path d="M8.999 18h8.002v2h-8.002v-2z" fill="#000000" />
	<path d="M12 15h2v8h-2v-8z" fill="#000000" />
	<path d="M14.999 12h8.002v2h-8.002v-2z" fill="#000000" />
	<path d="M18 9h2v8h-2v-8z" fill="#000000" />
</svg>
