<?xml version="1.0" encoding="utf-8"?>
<!-- Generated by IcoMoon.io -->
<!DOCTYPE svg PUBLIC "-//W3C//DTD SVG 1.1//EN" "http://www.w3.org/Graphics/SVG/1.1/DTD/svg11.dtd">
<svg version="1.1" xmlns="http://www.w3.org/2000/svg" xmlns:xlink="http://www.w3.org/1999/xlink" width="32" height="32" viewBox="0 0 32 32">
<g>
</g>
	<path d="M11 32c-1.654 0-3-1.346-3-3v-11h2v11c0 0.551 0.449 1 1 1s1-0.449 1-1v-24c0-1.654-1.346-3-3-3s-3 1.346-3 3v13h-2v-13c0-2.757 2.243-5 5-5s5 2.243 5 5v24c0 1.654-1.346 3-3 3z" fill="#000000" />
	<path d="M22 32c-1.654 0-3-1.346-3-3v-15.586l-3-3v-10.414h2v9.586l3 3v16.414c0 0.551 0.448 1 1 1s1-0.449 1-1v-16.414l3-3v-9.586h2v10.414l-3 3v15.586c0 1.654-1.346 3-3 3z" fill="#000000" />
	<path d="M22.987-0.001l0.014 10-2 0.003-0.014-10 2-0.003z" fill="#000000" />
</svg>
