<?xml version="1.0" encoding="utf-8"?>
<!-- Generated by IcoMoon.io -->
<!DOCTYPE svg PUBLIC "-//W3C//DTD SVG 1.1//EN" "http://www.w3.org/Graphics/SVG/1.1/DTD/svg11.dtd">
<svg version="1.1" xmlns="http://www.w3.org/2000/svg" xmlns:xlink="http://www.w3.org/1999/xlink" width="32" height="32" viewBox="0 0 32 32">
<g>
</g>
	<path d="M32 9h-2v-7h-6.999v-2h8.999z" fill="#000000" />
	<path d="M30.293 0.293l1.414 1.414-13.071 13.071-1.414-1.414 13.071-13.071z" fill="#000000" />
	<path d="M8.999 32h-8.999v-8.998h2v6.998h6.999z" fill="#000000" />
	<path d="M13.365 17.222l1.414 1.414-13.071 13.071-1.414-1.414 13.071-13.071z" fill="#000000" />
	<path d="M6 11h-2v-6.998h6.998v2h-4.998z" fill="#000000" />
	<path d="M4 13.002h2v5.998h-2v-5.998z" fill="#000000" />
	<path d="M13.001 4h5.999v2h-5.999v-2z" fill="#000000" />
	<path d="M28 27.998h-6.998v-2h4.998v-4.998h2z" fill="#000000" />
	<path d="M26 13h2v5.998h-2v-5.998z" fill="#000000" />
	<path d="M13 26h5.999v2h-5.999v-2z" fill="#000000" />
</svg>
