<?xml version="1.0" encoding="utf-8"?>
<!-- Generated by IcoMoon.io -->
<!DOCTYPE svg PUBLIC "-//W3C//DTD SVG 1.1//EN" "http://www.w3.org/Graphics/SVG/1.1/DTD/svg11.dtd">
<svg version="1.1" xmlns="http://www.w3.org/2000/svg" xmlns:xlink="http://www.w3.org/1999/xlink" width="32" height="32" viewBox="0 0 32 32">
<g>
</g>
	<path d="M28.835 22h-19.595l-5-18h-3.24v-2h4.76l5 18h16.405l1.637-9h-15.757v-2h18.153z" fill="#000000" />
	<path d="M12 30c-1.654 0-3-1.346-3-3s1.346-3 3-3 3 1.346 3 3-1.346 3-3 3zM12 26c-0.552 0-1 0.448-1 1s0.448 1 1 1 1-0.448 1-1-0.448-1-1-1z" fill="#000000" />
	<path d="M25 30c-1.654 0-3-1.346-3-3s1.346-3 3-3 3 1.346 3 3-1.346 3-3 3zM25 26c-0.552 0-1 0.448-1 1s0.448 1 1 1 1-0.448 1-1-0.448-1-1-1z" fill="#000000" />
	<path d="M15 13h2v5h-2v-5z" fill="#000000" />
	<path d="M21 13h2v5h-2v-5z" fill="#000000" />
	<path d="M15 7h-2v-2.721l6.684-2.227 0.632 1.896-5.316 1.773z" fill="#000000" />
	<path d="M29 7h-2v-2.219l-6-1.5v3.719h-2v-6.281l10 2.5z" fill="#000000" />
</svg>
