<?xml version="1.0" encoding="utf-8"?>
<!-- Generated by IcoMoon.io -->
<!DOCTYPE svg PUBLIC "-//W3C//DTD SVG 1.1//EN" "http://www.w3.org/Graphics/SVG/1.1/DTD/svg11.dtd">
<svg version="1.1" xmlns="http://www.w3.org/2000/svg" xmlns:xlink="http://www.w3.org/1999/xlink" width="32" height="32" viewBox="0 0 32 32">
<g>
</g>
	<path d="M9 22h6v2h-6v-2z" fill="#000000" />
	<path d="M11 20h2v6h-2v-6z" fill="#000000" />
	<path d="M22.553 20.105l0.894 1.789-2 1-0.894-1.789 2-1z" fill="#000000" />
	<path d="M19.553 23.105l0.894 1.789-2 1-0.894-1.789 2-1z" fill="#000000" />
	<path d="M27 12h-2v-10h-18v10h-2v-12h22z" fill="#000000" />
	<path d="M23 12h-2v-6h-10v6h-2v-8h14z" fill="#000000" />
	<path d="M27 32h-22v-18h22v18zM7 30h18v-14h-18v14z" fill="#000000" />
</svg>
