<?xml version="1.0" encoding="utf-8"?>
<!-- Generated by IcoMoon.io -->
<!DOCTYPE svg PUBLIC "-//W3C//DTD SVG 1.1//EN" "http://www.w3.org/Graphics/SVG/1.1/DTD/svg11.dtd">
<svg version="1.1" xmlns="http://www.w3.org/2000/svg" xmlns:xlink="http://www.w3.org/1999/xlink" width="32" height="32" viewBox="0 0 32 32">
<g>
</g>
	<path d="M7 30c-3.859 0-7-3.141-7-7s3.141-7 7-7 7 3.141 7 7-3.141 7-7 7zM7 18c-2.757 0-5 2.243-5 5s2.243 5 5 5 5-2.243 5-5-2.243-5-5-5z" fill="#000000" />
	<path d="M6 23h-2c0-1.654 1.346-3 3-3v2c-0.552 0-1 0.448-1 1z" fill="#000000" />
	<path d="M24 23h-2c0-1.654 1.346-3 3-3v2c-0.552 0-1 0.448-1 1z" fill="#000000" />
	<path d="M25 30c-3.859 0-7-3.141-7-7s3.141-7 7-7 7 3.141 7 7-3.141 7-7 7zM25 18c-2.757 0-5 2.243-5 5s2.243 5 5 5 5-2.243 5-5-2.243-5-5-5z" fill="#000000" />
	<path d="M13 22h6v2h-6v-2z" fill="#000000" />
	<path d="M1.98 16.196l-1.96-0.392 1.981-9.909c0.057-2.158 1.829-3.895 3.999-3.895v2c-1.103 0-2 0.897-2 2l-0.020 0.196-2 10z" fill="#000000" />
	<path d="M30.020 16.196l-2.020-10.196c0-1.103-0.897-2-2-2v-2c2.17 0 3.942 1.737 3.999 3.895l1.981 9.909-1.96 0.392z" fill="#000000" />
</svg>
