<?xml version="1.0" encoding="utf-8"?>
<!-- Generated by IcoMoon.io -->
<!DOCTYPE svg PUBLIC "-//W3C//DTD SVG 1.1//EN" "http://www.w3.org/Graphics/SVG/1.1/DTD/svg11.dtd">
<svg version="1.1" xmlns="http://www.w3.org/2000/svg" xmlns:xlink="http://www.w3.org/1999/xlink" width="32" height="32" viewBox="0 0 32 32">
<g>
</g>
	<path d="M21.5 8c-2.206 0-4-1.794-4-4s1.794-4 4-4 4 1.794 4 4-1.794 4-4 4zM21.5 2c-1.103 0-2 0.897-2 2s0.897 2 2 2 2-0.897 2-2-0.897-2-2-2z" fill="#000000" />
	<path d="M13.5 32c-4.963 0-9-4.037-9-9s4.037-9 9-9v2c-3.859 0-7 3.141-7 7s3.141 7 7 7 7-3.141 7-7h2c0 4.963-4.037 9-9 9z" fill="#000000" />
	<path d="M13.5 28c-2.757 0-5-2.243-5-5s2.243-5 5-5v2c-1.654 0-3 1.346-3 3s1.346 3 3 3 3-1.346 3-3h2c0 2.757-2.243 5-5 5z" fill="#000000" />
	<path d="M25.48 30.196l-1.96-0.392 1.76-8.804h-11.257l3.991-9.978-5.213 0.079-5.8 3.74-1.084-1.682 6.282-4.049 8.787-0.132-4.009 10.022h10.743z" fill="#000000" />
</svg>
