<?xml version="1.0" encoding="utf-8"?>
<!-- Generated by IcoMoon.io -->
<!DOCTYPE svg PUBLIC "-//W3C//DTD SVG 1.1//EN" "http://www.w3.org/Graphics/SVG/1.1/DTD/svg11.dtd">
<svg version="1.1" xmlns="http://www.w3.org/2000/svg" xmlns:xlink="http://www.w3.org/1999/xlink" width="32" height="32" viewBox="0 0 32 32">
<g>
</g>
	<path d="M7 24.996h-1c-3.421 0-6-2.579-6-6s2.579-6 6-6h1v12zM5 15.106c-1.786 0.41-3 1.921-3 3.89s1.214 3.479 3 3.89v-7.78z" fill="#000000" />
	<path d="M26 24.996h-1v-12h1c3.421 0 6 2.579 6 6s-2.579 6-6 6zM27 15.106v7.779c1.786-0.41 3-1.921 3-3.89s-1.214-3.478-3-3.889z" fill="#000000" />
	<path d="M27 29.996v-2c0.498 0 1-0.31 1-1h2c0 1.71-1.29 3-3 3z" fill="#000000" />
	<path d="M23 27.996h4v2h-4v-2z" fill="#000000" />
	<path d="M20.526 32.005c-1.654 0-3-1.346-3-3s1.346-3 3-3 3 1.346 3 3-1.345 3-3 3zM20.526 28.005c-0.552 0-1 0.448-1 1s0.448 1 1 1 1-0.448 1-1-0.448-1-1-1z" fill="#000000" />
	<path d="M27 11.002h-2c0-4.966-4.037-9.006-9-9.006s-9 4.040-9 9.006h-2c0-6.068 4.935-11.006 11-11.006s11 4.938 11 11.006z" fill="#000000" />
</svg>
