<?xml version="1.0" encoding="utf-8"?>
<!-- Generated by IcoMoon.io -->
<!DOCTYPE svg PUBLIC "-//W3C//DTD SVG 1.1//EN" "http://www.w3.org/Graphics/SVG/1.1/DTD/svg11.dtd">
<svg version="1.1" xmlns="http://www.w3.org/2000/svg" xmlns:xlink="http://www.w3.org/1999/xlink" width="32" height="32" viewBox="0 0 32 32">
<g>
</g>
	<path d="M16.32 30.733l-14.087-13.076c-1.44-1.721-2.233-3.908-2.233-6.157 0-5.238 4.262-9.5 9.5-9.5 2.442 0 4.756 0.918 6.5 2.55 1.744-1.632 4.058-2.55 6.5-2.55 5.238 0 9.5 4.262 9.5 9.5 0 2.249-0.793 4.436-2.233 6.157l-0.095 0.099-11 9.984-1.344-1.48 10.947-9.937c1.097-1.336 1.725-3.090 1.725-4.823 0-4.136-3.364-7.5-7.5-7.5-2.228 0-4.318 0.964-5.735 2.645l-0.765 0.906-0.765-0.907c-1.417-1.68-3.507-2.644-5.735-2.644-4.136 0-7.5 3.364-7.5 7.5 0 1.735 0.629 3.49 1.728 4.827l13.952 12.94-1.36 1.466z" fill="#000000" />
	<path d="M15.208 24.247l-10.070-9.361c-0.734-0.97-1.138-2.173-1.138-3.386 0-3.033 2.467-5.5 5.5-5.5v2c-1.93 0-3.5 1.57-3.5 3.5 0 0.742 0.249 1.507 0.684 2.114l9.885 9.167-1.361 1.466zM19.441 10.008l-1.752-0.965c0.708-1.285 1.876-2.218 3.289-2.626 1.413-0.409 2.897-0.243 4.183 0.464l-0.965 1.752c-0.816-0.45-1.762-0.555-2.662-0.295-0.899 0.26-1.643 0.853-2.093 1.67z" fill="#000000" />
</svg>
