<?xml version="1.0" encoding="utf-8"?>
<!-- Generated by IcoMoon.io -->
<!DOCTYPE svg PUBLIC "-//W3C//DTD SVG 1.1//EN" "http://www.w3.org/Graphics/SVG/1.1/DTD/svg11.dtd">
<svg version="1.1" xmlns="http://www.w3.org/2000/svg" xmlns:xlink="http://www.w3.org/1999/xlink" width="32" height="32" viewBox="0 0 32 32">
<g>
</g>
	<path d="M18.131 31.921l-0.262-1.982c6.916-0.914 12.131-6.876 12.131-13.869 0-7.72-6.28-14-14-14s-14 6.28-14 14c0 6.993 5.215 12.955 12.131 13.868l-0.262 1.982c-7.907-1.042-13.869-7.857-13.869-15.85 0-8.822 7.178-16 16-16s16 7.178 16 16c0 7.993-5.962 14.808-13.869 15.851z" fill="#000000" />
	<path d="M17 18.9h-2v-3.97h1c2.206 0 4-1.794 4-4s-1.794-4-4-4-4 1.794-4 4h-2c0-3.309 2.691-6 6-6s6 2.691 6 6c0 2.968-2.166 5.439-5 5.917v2.053z" fill="#000000" />
	<path d="M16 26.93c-1.654 0-3-1.346-3-3s1.346-3 3-3 3 1.346 3 3-1.346 3-3 3zM16 22.93c-0.551 0-1 0.448-1 1s0.449 1 1 1 1-0.448 1-1-0.449-1-1-1z" fill="#000000" />
</svg>
