<?xml version="1.0" encoding="utf-8"?>
<!-- Generated by IcoMoon.io -->
<!DOCTYPE svg PUBLIC "-//W3C//DTD SVG 1.1//EN" "http://www.w3.org/Graphics/SVG/1.1/DTD/svg11.dtd">
<svg version="1.1" xmlns="http://www.w3.org/2000/svg" xmlns:xlink="http://www.w3.org/1999/xlink" width="32" height="32" viewBox="0 0 32 32">
<g>
</g>
	<path d="M16 17c-4.963 0-9-4.037-9-9h2c0 3.859 3.141 7 7 7s7-3.141 7-7h2c0 4.963-4.037 9-9 9z" fill="#000000" />
	<path d="M27 6h-22v-6h22v6zM7 4h18v-2h-18v2z" fill="#000000" />
	<path d="M25 24h-2c0-3.859-3.141-7-7-7s-7 3.141-7 7h-2c0-4.963 4.037-9 9-9s9 4.037 9 9z" fill="#000000" />
	<path d="M13 24h-2c0-2.757 2.243-5 5-5v2c-1.654 0-3 1.346-3 3z" fill="#000000" />
	<path d="M16 13c-2.757 0-5-2.243-5-5h2c0 1.654 1.346 3 3 3v2z" fill="#000000" />
	<path d="M27 32h-22v-6h22v6zM7 30h18v-2h-18v2z" fill="#000000" />
</svg>
