<?xml version="1.0" encoding="utf-8"?>
<!-- Generated by IcoMoon.io -->
<!DOCTYPE svg PUBLIC "-//W3C//DTD SVG 1.1//EN" "http://www.w3.org/Graphics/SVG/1.1/DTD/svg11.dtd">
<svg version="1.1" xmlns="http://www.w3.org/2000/svg" xmlns:xlink="http://www.w3.org/1999/xlink" width="32" height="32" viewBox="0 0 32 32">
<g>
</g>
	<path d="M28.002 32h-24v-13h2v11h20v-11h2z" fill="#000000" />
	<path d="M30.271 18.684l-14.271-15.222-14.271 15.222-1.458-1.368 15.729-16.778 15.729 16.778z" fill="#000000" />
	<path d="M20 28h-2v-7h-4v7h-2v-9h8z" fill="#000000" />
	<path d="M16.002 17c-2.206 0-4-1.794-4-4s1.794-4 4-4 4 1.794 4 4-1.794 4-4 4zM16.002 11c-1.103 0-2 0.897-2 2s0.897 2 2 2 2-0.897 2-2-0.898-2-2-2z" fill="#000000" />
</svg>
