<?xml version="1.0" encoding="utf-8"?>
<!-- Generated by IcoMoon.io -->
<!DOCTYPE svg PUBLIC "-//W3C//DTD SVG 1.1//EN" "http://www.w3.org/Graphics/SVG/1.1/DTD/svg11.dtd">
<svg version="1.1" xmlns="http://www.w3.org/2000/svg" xmlns:xlink="http://www.w3.org/1999/xlink" width="32" height="32" viewBox="0 0 32 32">
<g>
</g>
	<path d="M17.739 32h-3.439l-4.24-11.658 1.88-0.684 3.76 10.342h0.561l3.783-12.294 1.912 0.588z" fill="#000000" />
	<path d="M21 16c-3.309 0-6-2.691-6-6s2.691-6 6-6 6 2.691 6 6-2.691 6-6 6zM21 6c-2.206 0-4 1.794-4 4s1.794 4 4 4 4-1.794 4-4-1.794-4-4-4z" fill="#000000" />
	<path d="M21 10h-2c0-1.103 0.897-2 2-2v2z" fill="#000000" />
	<path d="M11 13h-2c0-1.103 0.897-2 2-2v2z" fill="#000000" />
	<path d="M11 19c-3.309 0-6-2.691-6-6s2.691-6 6-6c0.793 0 1.562 0.151 2.287 0.451l-0.763 1.849c-0.482-0.199-0.994-0.3-1.524-0.3-2.206 0-4 1.794-4 4s1.794 4 4 4c1.215 0 2.351-0.542 3.116-1.489l1.556 1.257c-1.147 1.419-2.849 2.232-4.672 2.232z" fill="#000000" />
	<path d="M11.068 5.261l-1.966-0.365c0.527-2.837 3.007-4.896 5.898-4.896 1.815 0 3.513 0.808 4.658 2.217l-1.552 1.262c-0.764-0.94-1.896-1.479-3.106-1.479-1.927 0-3.581 1.372-3.932 3.261z" fill="#000000" />
</svg>
