<?xml version="1.0" encoding="utf-8"?>
<!-- Generated by IcoMoon.io -->
<!DOCTYPE svg PUBLIC "-//W3C//DTD SVG 1.1//EN" "http://www.w3.org/Graphics/SVG/1.1/DTD/svg11.dtd">
<svg version="1.1" xmlns="http://www.w3.org/2000/svg" xmlns:xlink="http://www.w3.org/1999/xlink" width="32" height="32" viewBox="0 0 32 32">
<g>
</g>
	<path d="M16.843 29.3l-14.132-14.152 12.234-12.232c1.88-1.881 4.378-2.917 7.034-2.917 2.671 0 5.187 1.045 7.083 2.941 1.89 1.889 2.933 4.397 2.938 7.062 0.004 2.667-1.033 5.176-2.922 7.064l-12.235 12.234zM5.539 15.149l11.306 11.322 10.82-10.819c1.51-1.51 2.339-3.515 2.336-5.647-0.003-2.131-0.839-4.138-2.352-5.65-1.52-1.519-3.533-2.355-5.669-2.355-2.121 0-4.117 0.828-5.62 2.331l-10.821 10.818z" fill="#000000" />
	<path d="M10.487 15.858l-1.414-1.414 8.7-8.699c1.125-1.126 2.619-1.746 4.206-1.746 1.601 0 3.112 0.628 4.254 1.77l-1.413 1.415c-1.52-1.518-4.128-1.53-5.633-0.025l-8.7 8.699z" fill="#000000" />
	<path d="M3 32c-0.768 0-1.536-0.292-2.121-0.877-0.567-0.567-0.879-1.322-0.879-2.124 0-0.802 0.313-1.555 0.88-2.121l5.483-5.484 1.414 1.414-5.484 5.485c-0.189 0.188-0.293 0.439-0.293 0.707 0 0.269 0.104 0.52 0.293 0.709 0.39 0.39 1.024 0.39 1.414 0l5.484-5.486 1.414 1.414-5.484 5.486c-0.584 0.585-1.353 0.877-2.121 0.877z" fill="#000000" />
</svg>
