<?xml version="1.0" encoding="utf-8"?>
<!-- Generated by IcoMoon.io -->
<!DOCTYPE svg PUBLIC "-//W3C//DTD SVG 1.1//EN" "http://www.w3.org/Graphics/SVG/1.1/DTD/svg11.dtd">
<svg version="1.1" xmlns="http://www.w3.org/2000/svg" xmlns:xlink="http://www.w3.org/1999/xlink" width="32" height="32" viewBox="0 0 32 32">
<g>
</g>
	<path d="M16 31.93c-8.822 0-16-7.178-16-16 0-7.993 5.962-14.808 13.869-15.851l0.262 1.982c-6.916 0.914-12.131 6.876-12.131 13.869 0 7.72 6.28 14 14 14s14-6.28 14-14c0-6.993-5.215-12.955-12.131-13.868l0.262-1.982c7.907 1.042 13.869 7.857 13.869 15.85 0 8.822-7.178 16-16 16z" fill="#000000" />
	<path d="M16 12.93c-1.654 0-3-1.346-3-3s1.346-3 3-3 3 1.346 3 3-1.346 3-3 3zM16 8.93c-0.551 0-1 0.448-1 1s0.449 1 1 1 1-0.448 1-1-0.449-1-1-1z" fill="#000000" />
	<path d="M15 14.93h2v10h-2v-10z" fill="#000000" />
</svg>
