<?xml version="1.0" encoding="utf-8"?>
<!-- Generated by IcoMoon.io -->
<!DOCTYPE svg PUBLIC "-//W3C//DTD SVG 1.1//EN" "http://www.w3.org/Graphics/SVG/1.1/DTD/svg11.dtd">
<svg version="1.1" xmlns="http://www.w3.org/2000/svg" xmlns:xlink="http://www.w3.org/1999/xlink" width="32" height="32" viewBox="0 0 32 32">
<g>
</g>
	<path d="M9 32h-9v-6.393l11.263-12.283 1.474 1.352-10.737 11.709v3.615h5v-4h4.538l5.703-6.65 1.518 1.3-6.301 7.35h-3.458z" fill="#000000" />
	<path d="M22 20v-2c4.411 0 8-3.589 8-8s-3.589-8-8-8-8 3.589-8 8h-2c0-5.514 4.486-10 10-10s10 4.486 10 10-4.486 10-10 10z" fill="#000000" />
	<path d="M22 14c-2.206 0-4-1.795-4-4s1.794-4 4-4 4 1.795 4 4-1.794 4-4 4zM22 8c-1.103 0-2 0.896-2 2s0.897 2 2 2 2-0.896 2-2-0.897-2-2-2z" fill="#000000" />
</svg>
