<?xml version="1.0" encoding="utf-8"?>
<!-- Generated by IcoMoon.io -->
<!DOCTYPE svg PUBLIC "-//W3C//DTD SVG 1.1//EN" "http://www.w3.org/Graphics/SVG/1.1/DTD/svg11.dtd">
<svg version="1.1" xmlns="http://www.w3.org/2000/svg" xmlns:xlink="http://www.w3.org/1999/xlink" width="32" height="32" viewBox="0 0 32 32">
<g>
</g>
	<path d="M6 14h2v2h-2v-2z" fill="#000000" />
	<path d="M12 14h2v2h-2v-2z" fill="#000000" />
	<path d="M18 14h2v2h-2v-2z" fill="#000000" />
	<path d="M24 14h2v2h-2v-2z" fill="#000000" />
	<path d="M6 10h2v2h-2v-2z" fill="#000000" />
	<path d="M12 10h2v2h-2v-2z" fill="#000000" />
	<path d="M18 10h2v2h-2v-2z" fill="#000000" />
	<path d="M24 10h2v2h-2v-2z" fill="#000000" />
	<path d="M8 20h16v2h-16v-2z" fill="#000000" />
	<path d="M32 27h-32v-19h2v17h28v-18h-30v-2h32z" fill="#000000" />
</svg>
