<?xml version="1.0" encoding="utf-8"?>
<!-- Generated by IcoMoon.io -->
<!DOCTYPE svg PUBLIC "-//W3C//DTD SVG 1.1//EN" "http://www.w3.org/Graphics/SVG/1.1/DTD/svg11.dtd">
<svg version="1.1" xmlns="http://www.w3.org/2000/svg" xmlns:xlink="http://www.w3.org/1999/xlink" width="32" height="32" viewBox="0 0 32 32">
<g>
</g>
	<path d="M10.48 14h-2.48v-2h1.52l3.48-4.351v-3.649c0-2.206 1.794-4 4-4s4 1.794 4 4h-2c0-1.103-0.897-2-2-2s-2 0.897-2 2v4.351l-4.52 5.649z" fill="#000000" />
	<path d="M27.812 32l-11.087-0.039-6.865-1.961h-1.86v-2l2.275 0.039 6.865 1.961h9.108l3.524-14.19-10.772-1.943v-9.867h2v8.195l11.228 2.026z" fill="#000000" />
	<path d="M6 30h-6v-18h6v18zM2 28h2v-14h-2v14z" fill="#000000" />
</svg>
