<?xml version="1.0" encoding="utf-8"?>
<!-- Generated by IcoMoon.io -->
<!DOCTYPE svg PUBLIC "-//W3C//DTD SVG 1.1//EN" "http://www.w3.org/Graphics/SVG/1.1/DTD/svg11.dtd">
<svg version="1.1" xmlns="http://www.w3.org/2000/svg" xmlns:xlink="http://www.w3.org/1999/xlink" width="32" height="32" viewBox="0 0 32 32">
<g>
</g>
	<path d="M12.806 19.192c-3.507-3.51-3.507-9.22 0-12.729l1.414 1.414c-2.728 2.729-2.728 7.17 0 9.9l-1.414 1.415z" fill="#000000" />
	<path d="M25.534 19.192l-1.414-1.414 3.829-3.828c2.729-2.731 2.729-7.172 0-9.9-2.729-2.728-7.17-2.729-9.899 0l-3.829 3.828-1.414-1.414 3.829-3.828c3.508-3.509 9.218-3.509 12.728 0 3.509 3.507 3.509 9.218 0 12.729l-3.83 3.827z" fill="#000000" />
	<path d="M19.193 25.534l-1.414-1.414c2.729-2.729 2.729-7.169 0-9.9l1.414-1.414c3.509 3.51 3.509 9.221 0 12.728z" fill="#000000" />
	<path d="M9 31.996c-2.305 0-4.609-0.877-6.364-2.632-3.509-3.509-3.509-9.219 0-12.729l3.829-3.83 1.415 1.415-3.829 3.83c-2.729 2.729-2.729 7.171 0 9.9s7.17 2.729 9.899 0l3.829-3.83 1.414 1.414-3.829 3.83c-1.754 1.755-4.059 2.632-6.364 2.632z" fill="#000000" />
</svg>
