<?xml version="1.0" encoding="utf-8"?>
<!-- Generated by IcoMoon.io -->
<!DOCTYPE svg PUBLIC "-//W3C//DTD SVG 1.1//EN" "http://www.w3.org/Graphics/SVG/1.1/DTD/svg11.dtd">
<svg version="1.1" xmlns="http://www.w3.org/2000/svg" xmlns:xlink="http://www.w3.org/1999/xlink" width="32" height="32" viewBox="0 0 32 32">
<g>
</g>
	<path d="M16 32c-6.065 0-11-4.935-11-11v-10.982h2v10.982c0 4.962 4.037 9 9 9s9-4.038 9-9v-10.982h2v10.982c0 6.065-4.935 11-11 11z" fill="#000000" />
	<path d="M16 25.994c-2.757 0-5-2.24-5-4.994v-11h2v11c0 1.651 1.346 2.994 3 2.994s3-1.348 3-3.004v-10.99h2v10.99c0 2.76-2.243 5.004-5 5.004z" fill="#000000" />
	<path d="M13 8h-8v-8h8v8zM7 6h4v-4h-4v4z" fill="#000000" />
	<path d="M27 8h-8v-8h8v8zM21 6h4v-4h-4v4z" fill="#000000" />
</svg>
