<?xml version="1.0" encoding="utf-8"?>
<!-- Generated by IcoMoon.io -->
<!DOCTYPE svg PUBLIC "-//W3C//DTD SVG 1.1//EN" "http://www.w3.org/Graphics/SVG/1.1/DTD/svg11.dtd">
<svg version="1.1" xmlns="http://www.w3.org/2000/svg" xmlns:xlink="http://www.w3.org/1999/xlink" width="32" height="32" viewBox="0 0 32 32">
<g>
</g>
	<path d="M16 8c-2.206 0-4-1.794-4-4s1.794-4 4-4c2.206 0 4 1.794 4 4s-1.794 4-4 4zM16 2c-1.103 0-2 0.897-2 2s0.897 2 2 2c1.103 0 2-0.897 2-2s-0.897-2-2-2z" fill="#000000" />
	<path d="M9.999 21.056l-1.998-0.112 0.524-9.425 3.824-3.278 1.302 1.518-3.176 2.722z" fill="#000000" />
	<path d="M22.002 21.056l-0.477-8.575-3.175-2.722 1.3-1.518 3.825 3.278 0.523 9.425z" fill="#000000" />
	<path d="M18.905 32h-5.81l-1.090-10.9-0.005-6.1h2v6l0.904 9h2.191l0.91-9.1-0.005-5.9h2v6z" fill="#000000" />
</svg>
