<?xml version="1.0" encoding="utf-8"?>
<!-- Generated by IcoMoon.io -->
<!DOCTYPE svg PUBLIC "-//W3C//DTD SVG 1.1//EN" "http://www.w3.org/Graphics/SVG/1.1/DTD/svg11.dtd">
<svg version="1.1" xmlns="http://www.w3.org/2000/svg" xmlns:xlink="http://www.w3.org/1999/xlink" width="32" height="32" viewBox="0 0 32 32">
<g>
</g>
	<path d="M17.001 24h-0.024c-1.068-0.006-2.071-0.429-2.822-1.188s-1.161-1.767-1.155-2.835c0.013-2.193 1.807-3.977 4-3.977 1.092 0.006 2.094 0.429 2.845 1.188s1.161 1.767 1.155 2.835c-0.013 2.193-1.807 3.977-3.999 3.977zM17.012 18c-1.108 0-2.005 0.892-2.012 1.988-0.003 0.534 0.202 1.037 0.578 1.417 0.375 0.381 0.876 0.592 1.411 0.595l0.013 1v-1c1.096 0 1.992-0.892 1.999-1.988 0.003-0.534-0.202-1.037-0.578-1.417-0.376-0.381-0.877-0.592-1.411-0.595z" fill="#000000" />
	<path d="M24 24c-0.009 0-0.017 0-0.025 0-1.068-0.007-2.070-0.43-2.82-1.19l1.424-1.404c0.375 0.38 0.875 0.591 1.409 0.595 0.004 0 0.009 0 0.013 0 0.529 0 1.028-0.205 1.405-0.578 0.381-0.376 0.592-0.877 0.595-1.411s-0.202-1.037-0.577-1.417-0.876-0.591-1.41-0.594c-0.556-0.027-1.038 0.201-1.418 0.577l-1.406-1.424c0.753-0.745 1.75-1.154 2.81-1.154 0.008 0 0.017 0 0.024 0 1.068 0.006 2.070 0.428 2.821 1.188 0.75 0.76 1.161 1.767 1.154 2.835-0.007 1.069-0.429 2.071-1.188 2.822-0.753 0.745-1.751 1.155-2.811 1.155z" fill="#000000" />
	<path d="M32 28h-32v-24h32v24zM2 26h28v-20h-28v20z" fill="#000000" />
	<path d="M4 10h24v2h-24v-2z" fill="#000000" />
</svg>
