<?xml version="1.0" encoding="utf-8"?>
<!-- Generated by IcoMoon.io -->
<!DOCTYPE svg PUBLIC "-//W3C//DTD SVG 1.1//EN" "http://www.w3.org/Graphics/SVG/1.1/DTD/svg11.dtd">
<svg version="1.1" xmlns="http://www.w3.org/2000/svg" xmlns:xlink="http://www.w3.org/1999/xlink" width="32" height="32" viewBox="0 0 32 32">
<g>
</g>
	<path d="M16 32c-4.411 0-8-3.589-8-8s3.589-8 8-8 8 3.589 8 8-3.589 8-8 8zM16 18c-3.309 0-6 2.691-6 6s2.691 6 6 6 6-2.691 6-6-2.691-6-6-6z" fill="#000000" />
	<path d="M14 24h-2c0-2.206 1.794-4 4-4v2c-1.103 0-2 0.897-2 2z" fill="#000000" />
	<path d="M17.316 13.949l-0.632-1.898 8.162-2.72-0.846-4.331v-3h-16l-0.020 3.196-0.826 4.135 8.162 2.72-0.632 1.898-9.838-3.28 1.154-5.768v-4.901h20v4.901l1.154 5.768z" fill="#000000" />
	<path d="M12 4h2v4h-2v-4z" fill="#000000" />
	<path d="M18 4h2v4h-2v-4z" fill="#000000" />
</svg>
