<?xml version="1.0" encoding="utf-8"?>
<!-- Generated by IcoMoon.io -->
<!DOCTYPE svg PUBLIC "-//W3C//DTD SVG 1.1//EN" "http://www.w3.org/Graphics/SVG/1.1/DTD/svg11.dtd">
<svg version="1.1" xmlns="http://www.w3.org/2000/svg" xmlns:xlink="http://www.w3.org/1999/xlink" width="32" height="32" viewBox="0 0 32 32">
<g>
</g>
	<path d="M15 20h-5v-2h3v-8h-5v-2h7z" fill="#000000" />
	<path d="M32 26.414l-18.333-6.471 0.666-1.886 15.667 5.529v-19.172l-15.667 5.529-0.666-1.886 18.333-6.471z" fill="#000000" />
	<path d="M26.654 7.717l0.693 1.876-8.989 3.322-0.693-1.876 8.989-3.322z" fill="#000000" />
	<path d="M6 20h-6v-12h6v12zM2 18h2v-8h-2v8z" fill="#000000" />
	<path d="M8 30c-2.206 0-4-1.794-4-4v-4h2v4c0 1.103 0.897 2 2 2s2-0.897 2-2v-4h4v2h-2v2c0 2.206-1.794 4-4 4z" fill="#000000" />
</svg>
