<?xml version="1.0" encoding="utf-8"?>
<!-- Generated by IcoMoon.io -->
<!DOCTYPE svg PUBLIC "-//W3C//DTD SVG 1.1//EN" "http://www.w3.org/Graphics/SVG/1.1/DTD/svg11.dtd">
<svg version="1.1" xmlns="http://www.w3.org/2000/svg" xmlns:xlink="http://www.w3.org/1999/xlink" width="32" height="32" viewBox="0 0 32 32">
<g>
</g>
	<path d="M3.344 32c-0.894 0-1.733-0.348-2.365-0.979-1.303-1.303-1.303-3.423 0-4.728l1.414 1.414c-0.523 0.523-0.523 1.376 0 1.899 0.253 0.254 0.591 0.394 0.951 0.394v0c0.358 0 0.695-0.14 0.948-0.393l1.416 1.412c-0.631 0.632-1.47 0.981-2.362 0.981-0.001 0-0.002 0-0.002 0z" fill="#000000" />
	<path d="M23 18c-4.963 0-9-4.037-9-9s4.037-9 9-9 9 4.037 9 9-4.037 9-9 9zM23 2c-3.859 0-7 3.141-7 7s3.141 7 7 7 7-3.141 7-7-3.141-7-7-7z" fill="#000000" />
	<path d="M25.121 6.879c-1.131-1.131-3.111-1.131-4.242 0l-1.414-1.414c0.943-0.944 2.198-1.464 3.535-1.464s2.592 0.521 3.535 1.464l-1.414 1.414z" fill="#000000" />
	<path d="M17.813 22.258l-7.829-7.828 0.814-4.062 1.961 0.393-0.603 3.012 6.313 6.313 3.012-0.603 0.393 1.961z" fill="#000000" />
	<path d="M8.237 30.339l-6.335-6.334 8.386-10.526 1.565 1.246-7.273 9.129 3.808 3.807 9.13-7.271 1.246 1.564z" fill="#000000" />
</svg>
