<?xml version="1.0" encoding="utf-8"?>
<!-- Generated by IcoMoon.io -->
<!DOCTYPE svg PUBLIC "-//W3C//DTD SVG 1.1//EN" "http://www.w3.org/Graphics/SVG/1.1/DTD/svg11.dtd">
<svg version="1.1" xmlns="http://www.w3.org/2000/svg" xmlns:xlink="http://www.w3.org/1999/xlink" width="32" height="32" viewBox="0 0 32 32">
<g>
</g>
	<path d="M16 28.002c-6.617 0-12-5.402-12-12.042h2c0 5.537 4.486 10.042 10 10.042s10-4.468 10-9.959h2c0 6.594-5.383 11.959-12 11.959z" fill="#000000" />
	<path d="M17.14 23.87l-0.279-1.98c2.93-0.413 5.14-2.962 5.14-5.93v-8c0-2.966-2.21-5.516-5.14-5.93l0.279-1.98c3.911 0.553 6.86 3.953 6.86 7.91v8c0 3.958-2.949 7.358-6.86 7.91z" fill="#000000" />
	<path d="M14.86 23.87c-3.911-0.552-6.86-3.952-6.86-7.91v-8c0-3.957 2.949-7.357 6.86-7.91l0.279 1.98c-2.929 0.414-5.139 2.964-5.139 5.93v8c0 2.967 2.21 5.517 5.14 5.93l-0.28 1.98z" fill="#000000" />
	<path d="M15 3.96h2v16h-2v-16z" fill="#000000" />
	<path d="M20 5.96h2v2h-2v-2z" fill="#000000" />
	<path d="M20 10.96h2v2h-2v-2z" fill="#000000" />
	<path d="M20 15.96h2v2h-2v-2z" fill="#000000" />
	<path d="M10 5.96h2v2h-2v-2z" fill="#000000" />
	<path d="M10 10.96h2v2h-2v-2z" fill="#000000" />
	<path d="M10 15.96h2v2h-2v-2z" fill="#000000" />
	<path d="M11 29.96h10v2h-10v-2z" fill="#000000" />
</svg>
