<?xml version="1.0" encoding="utf-8"?>
<!-- Generated by IcoMoon.io -->
<!DOCTYPE svg PUBLIC "-//W3C//DTD SVG 1.1//EN" "http://www.w3.org/Graphics/SVG/1.1/DTD/svg11.dtd">
<svg version="1.1" xmlns="http://www.w3.org/2000/svg" xmlns:xlink="http://www.w3.org/1999/xlink" width="32" height="32" viewBox="0 0 32 32">
<g>
</g>
	<path d="M27 11h-2c0-4.963-4.038-9-9-9s-9 4.037-9 9h-2c0-6.065 4.935-11 11-11s11 4.935 11 11z" fill="#000000" />
	<path d="M16 32c-6.065 0-11-4.935-11-11v-8h2v8c0 4.963 4.038 9 9 9s9-4.037 9-9v-8h2v8c0 6.065-4.935 11-11 11z" fill="#000000" />
	<path d="M15 6h2v8h-2v-8z" fill="#000000" />
</svg>
