<?xml version="1.0" encoding="utf-8"?>
<!-- Generated by IcoMoon.io -->
<!DOCTYPE svg PUBLIC "-//W3C//DTD SVG 1.1//EN" "http://www.w3.org/Graphics/SVG/1.1/DTD/svg11.dtd">
<svg version="1.1" xmlns="http://www.w3.org/2000/svg" xmlns:xlink="http://www.w3.org/1999/xlink" width="32" height="32" viewBox="0 0 32 32">
<g>
</g>
	<path d="M32 29h-32v-26h32v26zM2 27h28v-22h-28v22z" fill="#000000" />
	<path d="M27 11h-6v-4h2v2h2v-2h2z" fill="#000000" />
	<path d="M19 11h-6v-4h2v2h2v-2h2z" fill="#000000" />
	<path d="M11 11h-6v-4h2v2h2v-2h2z" fill="#000000" />
	<path d="M11 25h-2v-2h-2v2h-2v-4h6z" fill="#000000" />
	<path d="M19 25h-2v-2h-2v2h-2v-4h6z" fill="#000000" />
	<path d="M27 25h-2v-2h-2v2h-2v-4h6z" fill="#000000" />
</svg>
