<?xml version="1.0" encoding="utf-8"?>
<!-- Generated by IcoMoon.io -->
<!DOCTYPE svg PUBLIC "-//W3C//DTD SVG 1.1//EN" "http://www.w3.org/Graphics/SVG/1.1/DTD/svg11.dtd">
<svg version="1.1" xmlns="http://www.w3.org/2000/svg" xmlns:xlink="http://www.w3.org/1999/xlink" width="32" height="32" viewBox="0 0 32 32">
<g>
</g>
	<path d="M19.010 32h-14c-2.757 0-5-2.244-5-5.001v-26.999h24v26.999c0 2.757-2.243 5.001-5 5.001zM12.010 30h7c1.654 0 3-1.346 3-3.001v-24.999h-20v24.999c0 1.655 1.346 3.001 3 3.001h7z" fill="#000000" />
	<path d="M29.010 18h-3.020v-2h3.020c0.541 0 0.98-0.449 0.98-1v-10c0-0.551-0.44-1-0.98-1h-3.020v-2h3.020c1.644 0 2.98 1.346 2.98 3v10.025c-0.013 1.643-1.345 2.975-2.98 2.975z" fill="#000000" />
	<path d="M7.010 28c-1.654 0-3-1.346-3-3v-21h2v21c0 0.551 0.449 1 1 1v2z" fill="#000000" />
</svg>
