<?xml version="1.0" encoding="utf-8"?>
<!-- Generated by IcoMoon.io -->
<!DOCTYPE svg PUBLIC "-//W3C//DTD SVG 1.1//EN" "http://www.w3.org/Graphics/SVG/1.1/DTD/svg11.dtd">
<svg version="1.1" xmlns="http://www.w3.org/2000/svg" xmlns:xlink="http://www.w3.org/1999/xlink" width="32" height="32" viewBox="0 0 32 32">
<g>
</g>
	<path d="M9.977 26.001v0c-5.501 0-9.977-4.486-9.977-10s4.47-10 9.965-10l12.059-0.002c5.501 0 9.977 4.486 9.977 10-0.001 5.515-4.471 10.001-9.966 10.001l-12.058 0.001zM22.023 7.999l-12.058 0.002c-4.392 0-7.965 3.589-7.965 8s3.578 8 7.977 8l12.058-0.001c4.392 0 7.965-3.589 7.965-8.001 0-4.411-3.578-8-7.977-8z" fill="#000000" />
	<path d="M10 22.001c-3.309 0-6-2.691-6-6s2.691-6 6-6 6 2.691 6 6-2.691 6-6 6zM10 12.001c-2.206 0-4 1.794-4 4s1.794 4 4 4 4-1.794 4-4-1.794-4-4-4z" fill="#000000" />
</svg>
