<?xml version="1.0" encoding="utf-8"?>
<!-- Generated by IcoMoon.io -->
<!DOCTYPE svg PUBLIC "-//W3C//DTD SVG 1.1//EN" "http://www.w3.org/Graphics/SVG/1.1/DTD/svg11.dtd">
<svg version="1.1" xmlns="http://www.w3.org/2000/svg" xmlns:xlink="http://www.w3.org/1999/xlink" width="32" height="32" viewBox="0 0 32 32">
<g>
</g>
	<path d="M16 32c-6.617 0-12-5.383-12-12v-6h24v6c0 6.617-5.384 12-12 12zM6 16v4c0 5.514 4.486 10 10 10s10-4.486 10-10v-4h-20z" fill="#000000" />
	<path d="M16 27c-1.646 0-2.986-1.332-3-2.975v-2.025c0-1.654 1.346-3 3-3s3 1.346 3 3v2.025c-0.014 1.643-1.355 2.975-3 2.975zM16 21c-0.551 0-1 0.449-1 1v2c0 0.551 0.449 1 1 1s1-0.449 1-1v-2c0-0.551-0.449-1-1-1z" fill="#000000" />
	<path d="M8.971 12.564c-2.206-3.089-1.778-7.359 1.017-10.154 3.117-3.119 8.094-3.219 11.092-0.223l3.051 3.051-1.414 1.414-3.051-3.051c-2.218-2.217-5.925-2.117-8.264 0.223-2.101 2.101-2.438 5.287-0.803 7.578l-1.628 1.162z" fill="#000000" />
</svg>
