<?xml version="1.0" encoding="utf-8"?>
<!-- Generated by IcoMoon.io -->
<!DOCTYPE svg PUBLIC "-//W3C//DTD SVG 1.1//EN" "http://www.w3.org/Graphics/SVG/1.1/DTD/svg11.dtd">
<svg version="1.1" xmlns="http://www.w3.org/2000/svg" xmlns:xlink="http://www.w3.org/1999/xlink" width="32" height="32" viewBox="0 0 32 32">
<g>
</g>
	<path d="M10 31c-2.672 0-5.183-1.041-7.071-2.93-1.889-1.888-2.929-4.399-2.929-7.070 0-2.671 1.040-5.183 2.929-7.072l11.56-12.387 1.463 1.364-11.585 12.412c-1.535 1.536-2.367 3.546-2.367 5.683s0.832 4.146 2.343 5.656c1.511 1.511 3.52 2.344 5.657 2.344s4.146-0.833 5.656-2.344l12.564-13.391c1.156-1.156 1.78-2.662 1.78-4.265s-0.624-3.109-1.758-4.242c-1.133-1.134-2.639-1.758-4.242-1.758s-3.109 0.624-4.242 1.758l-12.564 13.389c-1.589 1.59-1.594 4.133-0.035 5.693 0.752 0.752 1.755 1.166 2.823 1.166 0.003 0 0.006 0 0.010 0 1.072-0.002 2.079-0.421 2.836-1.178l12.056-12.571 1.443 1.385-12.070 12.586c-1.147 1.148-2.655 1.774-4.261 1.778-0.005 0-0.009 0-0.014 0-1.604 0-3.107-0.622-4.237-1.752-2.34-2.339-2.334-6.152 0.013-8.498l12.563-13.389c1.533-1.534 3.541-2.367 5.679-2.367s4.146 0.833 5.656 2.344c1.512 1.51 2.344 3.519 2.344 5.656s-0.832 4.146-2.344 5.657l-12.563 13.39c-1.91 1.912-4.422 2.953-7.093 2.953z" fill="#000000" />
</svg>
