<?xml version="1.0" encoding="utf-8"?>
<!-- Generated by IcoMoon.io -->
<!DOCTYPE svg PUBLIC "-//W3C//DTD SVG 1.1//EN" "http://www.w3.org/Graphics/SVG/1.1/DTD/svg11.dtd">
<svg version="1.1" xmlns="http://www.w3.org/2000/svg" xmlns:xlink="http://www.w3.org/1999/xlink" width="32" height="32" viewBox="0 0 32 32">
<g>
</g>
	<path d="M10.311 20.772l1.373 1.453-8.998 8.502-1.373-1.453 8.998-8.502z" fill="#000000" />
	<path d="M13 23.502c-2.206 0-4-1.794-4-4s1.794-4 4-4 4 1.794 4 4-1.794 4-4 4zM13 17.502c-1.103 0-2 0.897-2 2s0.897 2 2 2 2-0.897 2-2-0.897-2-2-2z" fill="#000000" />
	<path d="M23.001 16.501c-2.137 0-4.146-0.833-5.657-2.344-1.512-1.511-2.344-3.52-2.345-5.656 0-2.137 0.833-4.146 2.345-5.658l2.732-2.76 11.339 11.323-2.758 2.752c-1.511 1.51-3.519 2.343-5.656 2.343zM20.084 2.917l-1.323 1.336c-1.138 1.139-1.762 2.646-1.762 4.248 0 1.603 0.625 3.108 1.759 4.242 1.133 1.133 2.64 1.758 4.243 1.758 1.603 0 3.109-0.625 4.243-1.758l1.34-1.337-8.5-8.489z" fill="#000000" />
	<path d="M0.853 31.229l2.212-19.353 9.449-5.25 0.972 1.748-8.551 4.75-1.788 15.647 17.115-3.152 2.801-7.471 1.874 0.704-3.199 8.529z" fill="#000000" />
</svg>
