<?xml version="1.0" encoding="utf-8"?>
<!-- Generated by IcoMoon.io -->
<!DOCTYPE svg PUBLIC "-//W3C//DTD SVG 1.1//EN" "http://www.w3.org/Graphics/SVG/1.1/DTD/svg11.dtd">
<svg version="1.1" xmlns="http://www.w3.org/2000/svg" xmlns:xlink="http://www.w3.org/1999/xlink" width="32" height="32" viewBox="0 0 32 32">
<g>
</g>
	<path d="M29.536 10.95l-8.484-8.485 0.707-0.707c1.133-1.134 2.64-1.758 4.242-1.758s3.109 0.624 4.242 1.758c2.339 2.34 2.339 6.146 0 8.485l-0.707 0.707zM23.968 2.554l5.479 5.479c0.903-1.533 0.697-3.545-0.618-4.86-1.271-1.272-3.357-1.513-4.861-0.619z" fill="#000000" />
	<path d="M20.873 3.5l6 9.984-1.713 1.030-6-9.984 1.713-1.030z" fill="#000000" />
	<path d="M0.59 31.405l2.979-11.166 1.932 0.516-2.091 7.84 7.862-2.071 0.51 1.934z" fill="#000000" />
	<path d="M13.408 27.006l-2.356-6.041-6.041-2.361 12.415-12.529 1.421 1.408-10.272 10.367 4.022 1.572 1.565 4.014 8.34-8.293 1.41 1.418z" fill="#000000" />
</svg>
