<?xml version="1.0" encoding="utf-8"?>
<!-- Generated by IcoMoon.io -->
<!DOCTYPE svg PUBLIC "-//W3C//DTD SVG 1.1//EN" "http://www.w3.org/Graphics/SVG/1.1/DTD/svg11.dtd">
<svg version="1.1" xmlns="http://www.w3.org/2000/svg" xmlns:xlink="http://www.w3.org/1999/xlink" width="32" height="32" viewBox="0 0 32 32">
<g>
</g>
	<path d="M20.908 32.256c-4.721 0-9.987-2.272-14.259-6.534-6.83-6.812-8.682-16.291-4.307-22.048l1.592 1.21c-3.709 4.883-1.897 13.414 4.128 19.423 6.013 6 14.438 7.7 19.178 3.869l1.258 1.556c-2.109 1.703-4.751 2.524-7.59 2.524z" fill="#000000" />
	<path d="M30.292 27.39l-7.559-7.583-1.359 1.363c-1.43 1.436-3.333 2.228-5.357 2.228-2.025 0-3.929-0.791-5.359-2.228-2.953-2.96-2.953-7.779 0-10.742l1.363-1.367-7.563-7.589 1.416-1.412 8.971 9-2.771 2.779c-2.177 2.184-2.177 5.735 0 7.918 1.054 1.058 2.454 1.64 3.943 1.64 1.488 0 2.889-0.583 3.94-1.639l2.776-2.784 8.975 9.004-1.416 1.412z" fill="#000000" />
</svg>
