<?xml version="1.0" encoding="utf-8"?>
<!-- Generated by IcoMoon.io -->
<!DOCTYPE svg PUBLIC "-//W3C//DTD SVG 1.1//EN" "http://www.w3.org/Graphics/SVG/1.1/DTD/svg11.dtd">
<svg version="1.1" xmlns="http://www.w3.org/2000/svg" xmlns:xlink="http://www.w3.org/1999/xlink" width="32" height="32" viewBox="0 0 32 32">
<g>
</g>
	<path d="M32 29h-32v-26h32v26zM2 27h28v-22h-28v22z" fill="#000000" />
	<path d="M20.263 25.676l-10.293-11.229-5.233 5.259-1.418-1.412 6.711-6.741 11.707 12.771z" fill="#000000" />
	<path d="M27.293 22.707l-4.266-4.265-3.76 4.061-1.467-1.359 5.173-5.586 5.734 5.735z" fill="#000000" />
	<path d="M18 15c-1.654 0-3-1.346-3-3s1.346-3 3-3c1.654 0 3 1.346 3 3s-1.346 3-3 3zM18 11c-0.551 0-0.999 0.449-0.999 1s0.448 1 0.999 1c0.552 0 1-0.449 1-1s-0.448-1-1-1z" fill="#000000" />
</svg>
