<?xml version="1.0" encoding="utf-8"?>
<!-- Generated by IcoMoon.io -->
<!DOCTYPE svg PUBLIC "-//W3C//DTD SVG 1.1//EN" "http://www.w3.org/Graphics/SVG/1.1/DTD/svg11.dtd">
<svg version="1.1" xmlns="http://www.w3.org/2000/svg" xmlns:xlink="http://www.w3.org/1999/xlink" width="32" height="32" viewBox="0 0 32 32">
<g>
</g>
	<path d="M25.535 19.193l-1.414-1.414 3.829-3.829c2.729-2.729 2.729-7.171 0-9.9s-7.17-2.729-9.899 0l-3.829 3.829-1.414-1.414 3.829-3.829c3.509-3.51 9.219-3.51 12.728 0 3.509 3.509 3.509 9.22 0 12.729l-3.83 3.828z" fill="#000000" />
	<path d="M9.001 32c-2.404 0-4.664-0.936-6.364-2.636-3.509-3.51-3.509-9.221 0-12.729l7.766-7.764 12.762 12.693-7.8 7.8c-1.7 1.7-3.96 2.636-6.364 2.636zM10.407 11.695l-6.355 6.354c-2.729 2.729-2.729 7.171 0 9.901 1.322 1.322 3.079 2.050 4.949 2.050s3.627-0.728 4.95-2.050l6.382-6.382-9.926-9.873z" fill="#000000" />
</svg>
