<?xml version="1.0" encoding="utf-8"?>
<!-- Generated by IcoMoon.io -->
<!DOCTYPE svg PUBLIC "-//W3C//DTD SVG 1.1//EN" "http://www.w3.org/Graphics/SVG/1.1/DTD/svg11.dtd">
<svg version="1.1" xmlns="http://www.w3.org/2000/svg" xmlns:xlink="http://www.w3.org/1999/xlink" width="32" height="32" viewBox="0 0 32 32">
<g>
</g>
	<path d="M19.921 28.39l-1.842-0.78 10.039-23.728-23.728 10.039-0.78-1.842 28.272-11.961z" fill="#000000" />
	<path d="M19 32c-10.477 0-19-8.523-19-19h2c0 9.374 7.626 17 17 17v2z" fill="#000000" />
	<path d="M10 21c-2.206 0-4-1.794-4-4s1.794-4 4-4 4 1.794 4 4-1.794 4-4 4zM10 15c-1.103 0-2 0.897-2 2s0.897 2 2 2 2-0.897 2-2-0.897-2-2-2z" fill="#000000" />
	<path d="M19 17c-1.654 0-3-1.346-3-3s1.346-3 3-3 3 1.346 3 3-1.346 3-3 3zM19 13c-0.552 0-1 0.449-1 1s0.448 1 1 1 1-0.449 1-1-0.448-1-1-1z" fill="#000000" />
	<path d="M15 27c-1.654 0-3-1.346-3-3s1.346-3 3-3 3 1.346 3 3-1.346 3-3 3zM15 23c-0.551 0-1 0.449-1 1s0.449 1 1 1 1-0.449 1-1-0.449-1-1-1z" fill="#000000" />
</svg>
