<?xml version="1.0" encoding="utf-8"?>
<!-- Generated by IcoMoon.io -->
<!DOCTYPE svg PUBLIC "-//W3C//DTD SVG 1.1//EN" "http://www.w3.org/Graphics/SVG/1.1/DTD/svg11.dtd">
<svg version="1.1" xmlns="http://www.w3.org/2000/svg" xmlns:xlink="http://www.w3.org/1999/xlink" width="32" height="32" viewBox="0 0 32 32">
<g>
</g>
	<path d="M16 25.945c-6.065 0-11-4.935-11-11s4.935-11 11-11 11 4.935 11 11-4.935 11-11 11zM16 5.945c-4.963 0-9 4.037-9 9s4.037 9 9 9 9-4.037 9-9-4.037-9-9-9z" fill="#000000" />
	<path d="M1.694 30.897c-0.493 0-0.903-0.138-1.206-0.44-0.808-0.809-1.155-2.497 3.358-8.432l1.592 1.211c-2.691 3.539-3.28 5.119-3.405 5.695 1.783-0.319 7.907-4.548 15.656-12.297 7.75-7.75 11.979-13.875 12.297-15.657-0.583 0.126-2.195 0.728-5.828 3.508l-1.215-1.588c6.041-4.625 7.753-4.282 8.569-3.463 2.953 2.953-9.818 16.024-12.409 18.614-2.324 2.325-13.089 12.849-17.409 12.849z" fill="#000000" />
</svg>
