<?xml version="1.0" encoding="utf-8"?>
<!-- Generated by IcoMoon.io -->
<!DOCTYPE svg PUBLIC "-//W3C//DTD SVG 1.1//EN" "http://www.w3.org/Graphics/SVG/1.1/DTD/svg11.dtd">
<svg version="1.1" xmlns="http://www.w3.org/2000/svg" xmlns:xlink="http://www.w3.org/1999/xlink" width="32" height="32" viewBox="0 0 32 32">
<g>
</g>
	<path d="M14.705 25.877l-8.484-8.485 11.171-11.171 8.485 8.484-11.172 11.172zM9.049 17.392l5.656 5.657 8.344-8.344-5.657-5.656-8.343 8.343z" fill="#000000" />
	<path d="M6 32c-1.602 0-3.108-0.624-4.242-1.758-2.34-2.34-2.34-6.146-0.001-8.485l2.759-2.757 1.414 1.414-2.758 2.757c-0.756 0.755-1.172 1.76-1.172 2.828 0 1.069 0.417 2.073 1.172 2.829 0.756 0.756 1.761 1.172 2.828 1.172 1.068 0 2.072-0.416 2.828-1.172l2.758-2.758 1.414 1.414-2.758 2.758c-1.133 1.134-2.639 1.758-4.242 1.758z" fill="#000000" />
	<path d="M27.484 12.999l-1.414-1.414 2.758-2.756c0.756-0.755 1.172-1.76 1.172-2.828-0.001-1.068-0.417-2.073-1.172-2.829-1.513-1.513-4.146-1.512-5.656 0l-2.758 2.758-1.414-1.414 2.758-2.758c1.133-1.134 2.639-1.758 4.242-1.758 1.602 0 3.108 0.624 4.242 1.758 1.133 1.134 1.757 2.639 1.758 4.242 0 1.604-0.624 3.11-1.758 4.243l-2.758 2.756z" fill="#000000" />
	<path d="M12 15.586l1.414 1.414-1.414 1.414-1.414-1.414 1.414-1.414z" fill="#000000" />
	<path d="M16 14.586l1.414 1.414-1.414 1.414-1.414-1.414 1.414-1.414z" fill="#000000" />
	<path d="M17 10.586l1.414 1.414-1.414 1.414-1.414-1.414 1.414-1.414z" fill="#000000" />
	<path d="M15 18.586l1.414 1.414-1.414 1.414-1.414-1.414 1.414-1.414z" fill="#000000" />
	<path d="M20 13.586l1.414 1.414-1.414 1.414-1.414-1.414 1.414-1.414z" fill="#000000" />
</svg>
