<?xml version="1.0" encoding="utf-8"?>
<!-- Generated by IcoMoon.io -->
<!DOCTYPE svg PUBLIC "-//W3C//DTD SVG 1.1//EN" "http://www.w3.org/Graphics/SVG/1.1/DTD/svg11.dtd">
<svg version="1.1" xmlns="http://www.w3.org/2000/svg" xmlns:xlink="http://www.w3.org/1999/xlink" width="32" height="32" viewBox="0 0 32 32">
<g>
</g>
	<path d="M22 23.985h-2v-15h-8v15h-2v-17h12z" fill="#000000" />
	<path d="M32 30.985h-32v-18h8v2h-6v14h28v-10h-6v-2h8z" fill="#000000" />
	<path d="M15 0.985h2v4h-2v-4z" fill="#000000" />
	<path d="M2 6.985h2v4h-2v-4z" fill="#000000" />
	<path d="M6 6.985h2v4h-2v-4z" fill="#000000" />
	<path d="M24 10.985h2v4h-2v-4z" fill="#000000" />
	<path d="M27 10.985h2v4h-2v-4z" fill="#000000" />
	<path d="M30 10.985h2v4h-2v-4z" fill="#000000" />
</svg>
