<?xml version="1.0" encoding="utf-8"?>
<!-- Generated by IcoMoon.io -->
<!DOCTYPE svg PUBLIC "-//W3C//DTD SVG 1.1//EN" "http://www.w3.org/Graphics/SVG/1.1/DTD/svg11.dtd">
<svg version="1.1" xmlns="http://www.w3.org/2000/svg" xmlns:xlink="http://www.w3.org/1999/xlink" width="32" height="32" viewBox="0 0 32 32">
<g>
</g>
	<path d="M8.215 19.126c-4.277-4.366-4.277-11.47 0-15.836 2.079-2.122 4.844-3.29 7.785-3.29 0.001 0 0.001 0 0.001 0 2.941 0 5.706 1.169 7.784 3.291 4.276 4.366 4.276 11.47 0.001 15.836l-1.43-1.399c3.521-3.594 3.521-9.443 0-13.037-1.698-1.736-3.956-2.691-6.355-2.691h-0.001c-2.399 0-4.657 0.956-6.357 2.69-3.521 3.594-3.521 9.443 0 13.037l-1.428 1.399z" fill="#000000" />
	<path d="M16 31.887l-5.848-9.357 1.696-1.060 4.152 6.643 4.152-6.643 1.696 1.060z" fill="#000000" />
	<path d="M16 17c-3.309 0-6-2.691-6-6s2.691-6 6-6 6 2.691 6 6-2.691 6-6 6zM16 7c-2.206 0-4 1.794-4 4s1.794 4 4 4 4-1.794 4-4-1.794-4-4-4z" fill="#000000" />
</svg>
