<?xml version="1.0" encoding="utf-8"?>
<!-- Generated by IcoMoon.io -->
<!DOCTYPE svg PUBLIC "-//W3C//DTD SVG 1.1//EN" "http://www.w3.org/Graphics/SVG/1.1/DTD/svg11.dtd">
<svg version="1.1" xmlns="http://www.w3.org/2000/svg" xmlns:xlink="http://www.w3.org/1999/xlink" width="32" height="32" viewBox="0 0 32 32">
<g>
</g>
	<path d="M16 32c-7.72 0-14-6.28-14-14 0-5.771 3.461-10.876 8.816-13.004l0.738 1.857c-4.588 1.825-7.554 6.2-7.554 11.147 0 6.617 5.383 12 12 12s12-5.383 12-12c0-4.946-2.966-9.321-7.555-11.146l0.738-1.857c5.356 2.128 8.817 7.232 8.817 13.003 0 7.72-6.28 14-14 14z" fill="#000000" />
	<path d="M15.999 13.002v0c-0.802 0-1.556-0.313-2.123-0.881-0.566-0.568-0.877-1.321-0.876-2.121v-6.998c-0.001-0.8 0.311-1.554 0.878-2.121s1.32-0.881 2.121-0.881c1.655 0 3.001 1.346 3.001 3v7c0 1.653-1.347 3-3.001 3.002zM16 2c-0.267 0-0.518 0.105-0.707 0.295s-0.293 0.439-0.293 0.705v7c0 0.268 0.104 0.518 0.292 0.707 0.189 0.189 0.439 0.295 0.706 0.295 0.553-0.001 1.002-0.45 1.002-1.002v-7c0-0.551-0.448-1-1-1z" fill="#000000" />
</svg>
