<?xml version="1.0" encoding="utf-8"?>
<!-- Generated by IcoMoon.io -->
<!DOCTYPE svg PUBLIC "-//W3C//DTD SVG 1.1//EN" "http://www.w3.org/Graphics/SVG/1.1/DTD/svg11.dtd">
<svg version="1.1" xmlns="http://www.w3.org/2000/svg" xmlns:xlink="http://www.w3.org/1999/xlink" width="32" height="32" viewBox="0 0 32 32">
<g>
</g>
	<path d="M29.767 15.657l-1.533-1.283c1.121-1.343 1.766-3.119 1.766-4.874 0-4.136-3.364-7.5-7.5-7.5-2.228 0-4.318 0.964-5.735 2.645l-0.765 0.907-0.765-0.907c-1.417-1.681-3.507-2.645-5.735-2.645-4.136 0-7.5 3.364-7.5 7.5 0 1.755 0.644 3.531 1.767 4.874l-1.534 1.283c-1.44-1.721-2.233-3.908-2.233-6.157 0-5.238 4.262-9.5 9.5-9.5 2.442 0 4.756 0.918 6.5 2.55 1.744-1.632 4.058-2.55 6.5-2.55 5.238 0 9.5 4.262 9.5 9.5 0 2.249-0.793 4.436-2.233 6.157z" fill="#000000" />
	<path d="M15.161 23.581l-3.321-7.191-1.199 2.61h-10.641v-2h9.359l2.475-5.394 3.091 6.694 4.039-11.306 3.693 10.006h9.343v2h-10.737l-2.268-6.146z" fill="#000000" />
	<path d="M17.465 32h-2.93l-8.299-9.84 1.528-1.289 7.701 9.129h1.070l7.7-9.129 1.53 1.289z" fill="#000000" />
</svg>
