<?xml version="1.0" encoding="utf-8"?>
<!-- Generated by IcoMoon.io -->
<!DOCTYPE svg PUBLIC "-//W3C//DTD SVG 1.1//EN" "http://www.w3.org/Graphics/SVG/1.1/DTD/svg11.dtd">
<svg version="1.1" xmlns="http://www.w3.org/2000/svg" xmlns:xlink="http://www.w3.org/1999/xlink" width="32" height="32" viewBox="0 0 32 32">
<g>
</g>
	<path d="M24.588 22.97l-1.414-1.414 3.535-3.535-4.244-4.244 1.414-1.414 5.658 5.658z" fill="#000000" />
	<path d="M15.395 32.162l-15.557-15.557 14.142-14.141 5.657 5.656-1.414 1.414-4.243-4.242-11.314 11.313 12.729 12.729 3.535-3.536 1.414 1.414z" fill="#000000" />
	<path d="M25.988 11.998c-0.277 0-0.556-0.020-0.833-0.059l0.279-1.98c1.247 0.178 2.512-0.248 3.396-1.132 0.755-0.755 1.171-1.759 1.171-2.828s-0.416-2.073-1.171-2.828c-1.511-1.512-4.147-1.51-5.658 0-0.883 0.883-1.306 2.152-1.131 3.396l-1.98 0.278c-0.262-1.861 0.372-3.764 1.697-5.088 1.134-1.133 2.64-1.757 4.244-1.757s3.11 0.625 4.242 1.757c2.339 2.339 2.339 6.145 0 8.484-1.128 1.129-2.674 1.757-4.256 1.757z" fill="#000000" />
	<path d="M16.822 25.433c-1.582 0-3.128-0.628-4.256-1.756-2.339-2.339-2.339-6.146 0-8.485 2.338-2.339 6.145-2.339 8.484 0 1.327 1.327 1.961 3.23 1.697 5.091l-1.98-0.281c0.177-1.242-0.246-2.511-1.131-3.396-1.559-1.56-4.098-1.56-5.656 0-1.56 1.56-1.56 4.098 0 5.657 0.884 0.884 2.154 1.306 3.396 1.131l0.279 1.98c-0.277 0.039-0.555 0.059-0.833 0.059z" fill="#000000" />
</svg>
