<?xml version="1.0" encoding="utf-8"?>
<!-- Generated by IcoMoon.io -->
<!DOCTYPE svg PUBLIC "-//W3C//DTD SVG 1.1//EN" "http://www.w3.org/Graphics/SVG/1.1/DTD/svg11.dtd">
<svg version="1.1" xmlns="http://www.w3.org/2000/svg" xmlns:xlink="http://www.w3.org/1999/xlink" width="32" height="32" viewBox="0 0 32 32">
<g>
</g>
	<path d="M32 32h-32v-24h32v24zM2 30h28v-20h-28v20z" fill="#000000" />
	<path d="M11 27c-3.859 0-7-3.14-7-7s3.141-7 7-7 7 3.14 7 7-3.141 7-7 7zM11 15c-2.757 0-5 2.243-5 5s2.243 5 5 5 5-2.243 5-5-2.243-5-5-5z" fill="#000000" />
	<path d="M10 20h-2c0-1.654 1.346-3 3-3v2c-0.552 0-1 0.449-1 1z" fill="#000000" />
	<path d="M20 15h8v2h-8v-2z" fill="#000000" />
	<path d="M20 19h8v2h-8v-2z" fill="#000000" />
	<path d="M20 23h8v2h-8v-2z" fill="#000000" />
	<path d="M23.639 0.066l0.723 1.865-12.999 5.037-0.723-1.865 12.999-5.037z" fill="#000000" />
</svg>
