<?xml version="1.0" encoding="utf-8"?>
<!-- Generated by IcoMoon.io -->
<!DOCTYPE svg PUBLIC "-//W3C//DTD SVG 1.1//EN" "http://www.w3.org/Graphics/SVG/1.1/DTD/svg11.dtd">
<svg version="1.1" xmlns="http://www.w3.org/2000/svg" xmlns:xlink="http://www.w3.org/1999/xlink" width="32" height="32" viewBox="0 0 32 32">
<g>
</g>
	<path d="M16.010 31.978c-4.154 0-8.284-1.593-11.355-4.664-5.884-5.884-6.315-15.139-1.005-21.529l1.539 1.277c-4.646 5.592-4.269 13.689 0.879 18.837 4.6 4.601 11.916 5.411 17.396 1.929l1.072 1.688c-2.603 1.654-5.571 2.461-8.526 2.462z" fill="#000000" />
	<path d="M6 11h-2v-4h-4v-2h6z" fill="#000000" />
	<path d="M28.349 26.215l-1.537-1.279c4.646-5.59 4.269-13.688-0.88-18.835-4.601-4.6-11.915-5.41-17.396-1.929l-1.072-1.688c6.264-3.979 14.626-3.053 19.882 2.202 5.883 5.884 6.314 15.139 1.003 21.529z" fill="#000000" />
	<path d="M32 27h-6v-6h2v4h4z" fill="#000000" />
</svg>
