<?xml version="1.0" encoding="utf-8"?>
<!-- Generated by IcoMoon.io -->
<!DOCTYPE svg PUBLIC "-//W3C//DTD SVG 1.1//EN" "http://www.w3.org/Graphics/SVG/1.1/DTD/svg11.dtd">
<svg version="1.1" xmlns="http://www.w3.org/2000/svg" xmlns:xlink="http://www.w3.org/1999/xlink" width="32" height="32" viewBox="0 0 32 32">
<g>
</g>
	<path d="M30 32h-28v-26h2v24h24v-28h-20v-2h22z" fill="#000000" />
	<path d="M7 22h18v2h-18v-2z" fill="#000000" />
	<path d="M7 26h18v2h-18v-2z" fill="#000000" />
	<path d="M16 12c-2.206 0-4-1.793-4-3.998 0-2.207 1.794-4.002 4-4.002s4 1.795 4 4.002c0 2.205-1.794 3.998-4 3.998zM16 6c-1.103 0-2 0.898-2 2.002 0 1.102 0.897 1.998 2 1.998s2-0.896 2-1.998c0-1.104-0.897-2.002-2-2.002z" fill="#000000" />
	<path d="M22.214 20h-12.422l1.331-6.999 2.529-0.938 0.696 1.875-1.471 0.545-0.669 3.517h7.578l-0.667-3.425-1.516-0.658 0.794-1.834 2.484 1.075z" fill="#000000" />
</svg>
