<?xml version="1.0" encoding="utf-8"?>
<!-- Generated by IcoMoon.io -->
<!DOCTYPE svg PUBLIC "-//W3C//DTD SVG 1.1//EN" "http://www.w3.org/Graphics/SVG/1.1/DTD/svg11.dtd">
<svg version="1.1" xmlns="http://www.w3.org/2000/svg" xmlns:xlink="http://www.w3.org/1999/xlink" width="32" height="32" viewBox="0 0 32 32">
<g>
</g>
	<path d="M18.842 0.030l0.318 1.975-6.001 0.968-0.318-1.975 6.001-0.968z" fill="#000000" />
	<path d="M27.18 27h-22.36l2.18-13.115c0.046-4.907 4.065-8.885 9-8.885s8.954 3.973 9 8.875l2.18 13.125zM7.18 25h17.64l-1.82-11.041c0-3.837-3.141-6.959-7-6.959s-7 3.127-7 6.97l-0.014 0.164-1.806 10.866z" fill="#000000" />
	<path d="M11.991 22.131l-1.982-0.262 0.991-7.89c0-2.746 2.243-4.979 5-4.979v2c-1.654 0-3 1.336-3 2.979l-0.009 0.579-1 7.573z" fill="#000000" />
	<path d="M16 32c-1.654 0-3-1.346-3-3h2c0 0.551 0.448 1 1 1s1-0.449 1-1h2c0 1.654-1.346 3-3 3z" fill="#000000" />
</svg>
