<?xml version="1.0" encoding="utf-8"?>
<!-- Generated by IcoMoon.io -->
<!DOCTYPE svg PUBLIC "-//W3C//DTD SVG 1.1//EN" "http://www.w3.org/Graphics/SVG/1.1/DTD/svg11.dtd">
<svg version="1.1" xmlns="http://www.w3.org/2000/svg" xmlns:xlink="http://www.w3.org/1999/xlink" width="32" height="32" viewBox="0 0 32 32">
<g>
</g>
	<path d="M11 17c-2.757 0-5-2.242-5-4.998 0-2.758 2.243-5.002 5-5.002s5 2.244 5 5.002c0 2.756-2.243 4.998-5 4.998zM11 9c-1.654 0-3 1.347-3 3.002 0 1.653 1.346 2.998 3 2.998s3-1.345 3-2.998c0-1.655-1.346-3.002-3-3.002z" fill="#000000" />
	<path d="M16.013 25.162l-0.886-5.403-2.441-0.808 0.628-1.898 3.59 1.188 1.082 6.597z" fill="#000000" />
	<path d="M5.987 25.162l-1.974-0.324 1.083-6.597 3.59-1.188 0.628 1.898-2.441 0.808z" fill="#000000" />
	<path d="M20 9h4v2h-4v-2z" fill="#000000" />
	<path d="M20 13h8v2h-8v-2z" fill="#000000" />
	<path d="M20 17h8v2h-8v-2z" fill="#000000" />
	<path d="M20 21h8v2h-8v-2z" fill="#000000" />
	<path d="M11 27h10v2h-10v-2z" fill="#000000" />
	<path d="M32 29h-9v-2h7v-22h-28v22h7v2h-9v-26h32z" fill="#000000" />
</svg>
