<?xml version="1.0" encoding="utf-8"?>
<!-- Generated by IcoMoon.io -->
<!DOCTYPE svg PUBLIC "-//W3C//DTD SVG 1.1//EN" "http://www.w3.org/Graphics/SVG/1.1/DTD/svg11.dtd">
<svg version="1.1" xmlns="http://www.w3.org/2000/svg" xmlns:xlink="http://www.w3.org/1999/xlink" width="32" height="32" viewBox="0 0 32 32">
<g>
</g>
	<path d="M9 32c-3.309 0-6-2.691-6-6s2.691-6 6-6 6 2.691 6 6-2.691 6-6 6zM9 22c-2.206 0-4 1.794-4 4s1.794 4 4 4 4-1.794 4-4-1.794-4-4-4z" fill="#000000" />
	<path d="M23 32c-3.309 0-6-2.691-6-6s2.691-6 6-6 6 2.691 6 6-2.691 6-6 6zM23 22c-2.206 0-4 1.794-4 4s1.794 4 4 4 4-1.794 4-4-1.794-4-4-4z" fill="#000000" />
	<path d="M8.843 0.462l7 10.984-1.687 1.075-7-10.984 1.687-1.075z" fill="#000000" />
	<path d="M23.154 0.47l1.695 1.061-6.877 10.983-1.695-1.061 6.877-10.983z" fill="#000000" />
	<path d="M16 20c-1.654 0-3-1.346-3-3s1.346-3 3-3 3 1.346 3 3c0 1.654-1.346 3-3 3zM16 16c-0.551 0-1 0.449-1 1s0.449 1 1 1 1-0.448 1-1-0.449-1-1-1z" fill="#000000" />
</svg>
