<?xml version="1.0" encoding="utf-8"?>
<!-- Generated by IcoMoon.io -->
<!DOCTYPE svg PUBLIC "-//W3C//DTD SVG 1.1//EN" "http://www.w3.org/Graphics/SVG/1.1/DTD/svg11.dtd">
<svg version="1.1" xmlns="http://www.w3.org/2000/svg" xmlns:xlink="http://www.w3.org/1999/xlink" width="32" height="32" viewBox="0 0 32 32">
<g>
</g>
	<path d="M27.879 7.121v0c-0.802 0-1.555-0.313-2.122-0.879-0.565-0.565-0.877-1.318-0.878-2.12 0-0.802 0.313-1.556 0.879-2.122l1.414-1.414 4.242 4.242-1.414 1.414c-0.566 0.567-1.319 0.879-2.121 0.879zM27.172 3.414c-0.188 0.189-0.293 0.439-0.293 0.707s0.104 0.519 0.293 0.707c0.379 0.379 1.036 0.379 1.413 0h0.001l-1.414-1.414z" fill="#000000" />
	<path d="M25.758 4.828l1.414 1.414-10.465 10.465-1.414-1.414 10.465-10.465z" fill="#000000" />
	<path d="M11.758 18.828l1.414 1.414-7.465 7.465-1.414-1.414 7.465-7.465z" fill="#000000" />
	<path d="M5 32c-1.336 0-2.59-0.52-3.532-1.462-0.945-0.944-1.466-2.198-1.468-3.53-0.001-1.335 0.517-2.59 1.461-3.533l9.084-9.084 1.414 1.414-9.084 9.084c-0.565 0.565-0.876 1.316-0.875 2.115 0.001 0.801 0.314 1.553 0.882 2.119 1.17 1.17 3.076 1.168 4.249-0.006l9.071-9.070 1.414 1.414-9.071 9.071c-0.945 0.945-2.201 1.466-3.538 1.468-0.002 0-0.005 0-0.007 0z" fill="#000000" />
	<path d="M13.707 11.221l7.071 7.071-1.414 1.414-7.071-7.071 1.414-1.414z" fill="#000000" />
</svg>
