<?xml version="1.0" encoding="utf-8"?>
<!-- Generated by IcoMoon.io -->
<!DOCTYPE svg PUBLIC "-//W3C//DTD SVG 1.1//EN" "http://www.w3.org/Graphics/SVG/1.1/DTD/svg11.dtd">
<svg version="1.1" xmlns="http://www.w3.org/2000/svg" xmlns:xlink="http://www.w3.org/1999/xlink" width="32" height="32" viewBox="0 0 32 32">
<g>
</g>
	<path d="M13 26c-7.168 0-13-5.832-13-13s5.832-13 13-13 13 5.832 13 13-5.832 13-13 13zM13 2c-6.065 0-11 4.935-11 11s4.935 11 11 11 11-4.935 11-11-4.935-11-11-11z" fill="#000000" />
	<path d="M29.001 32c-0.769 0-1.536-0.292-2.121-0.877l-5.576-5.405 1.393-1.436 5.587 5.416c0.4 0.401 1.036 0.4 1.425 0.011 0.187-0.188 0.291-0.44 0.291-0.709s-0.104-0.519-0.292-0.707l-5.426-5.598 1.436-1.392 5.415 5.586c0.555 0.555 0.867 1.309 0.867 2.111s-0.312 1.556-0.877 2.122c-0.586 0.586-1.353 0.878-2.122 0.878z" fill="#000000" />
	<path d="M7.348 18.654c-3.119-3.118-3.119-8.192 0-11.313l1.414 1.414c-2.339 2.34-2.339 6.146 0 8.484l-1.414 1.415z" fill="#000000" />
</svg>
