<?xml version="1.0" encoding="utf-8"?>
<!-- Generated by IcoMoon.io -->
<!DOCTYPE svg PUBLIC "-//W3C//DTD SVG 1.1//EN" "http://www.w3.org/Graphics/SVG/1.1/DTD/svg11.dtd">
<svg version="1.1" xmlns="http://www.w3.org/2000/svg" xmlns:xlink="http://www.w3.org/1999/xlink" width="32" height="32" viewBox="0 0 32 32">
<g>
</g>
	<path d="M2.747 27.839l1.414 1.414-2.454 2.454-1.414-1.414 2.454-2.454z" fill="#000000" />
	<path d="M27.131 3.454l1.414 1.414-4.828 4.828-1.414-1.414 4.828-4.828z" fill="#000000" />
	<path d="M26.707 0.292l5 5-1.414 1.414-5-5 1.414-1.414z" fill="#000000" />
	<path d="M13.242 27.242l-1.414-1.414 11.070-11.071-5.656-5.657-11.071 11.071-1.414-1.414 12.485-12.486 8.485 8.486z" fill="#000000" />
	<path d="M8.312 18.028l1.658 1.657-1.413 1.415-1.658-1.657 1.413-1.415z" fill="#000000" />
	<path d="M11.312 15.028l1.658 1.657-1.413 1.415-1.658-1.657 1.413-1.415z" fill="#000000" />
	<path d="M14.312 12.028l1.658 1.656-1.413 1.415-1.658-1.656 1.413-1.415z" fill="#000000" />
	<path d="M8.999 28.996c-1.537 0-3.073-0.584-4.242-1.754-2.339-2.34-2.339-6.146 0-8.485l1.414 1.414c-1.559 1.56-1.559 4.098 0 5.657s4.096 1.559 5.657 0l1.414 1.414c-1.17 1.17-2.706 1.754-4.243 1.754z" fill="#000000" />
</svg>
