<?xml version="1.0" encoding="utf-8"?>
<!-- Generated by IcoMoon.io -->
<!DOCTYPE svg PUBLIC "-//W3C//DTD SVG 1.1//EN" "http://www.w3.org/Graphics/SVG/1.1/DTD/svg11.dtd">
<svg version="1.1" xmlns="http://www.w3.org/2000/svg" xmlns:xlink="http://www.w3.org/1999/xlink" width="32" height="32" viewBox="0 0 32 32">
<g>
</g>
	<path d="M15.981 20.999h-0.018c-1.335-0.005-2.589-0.529-3.531-1.477-0.941-0.948-1.457-2.205-1.452-3.54 0.010-2.748 2.253-4.983 5-4.983 1.354 0.005 2.608 0.529 3.549 1.478 0.94 0.947 1.456 2.204 1.451 3.539-0.009 2.748-2.252 4.983-4.999 4.983zM15.992 12.999c-1.66 0-3.005 1.341-3.011 2.989-0.003 0.802 0.307 1.557 0.872 2.125 0.564 0.568 1.317 0.883 2.118 0.886l0.011 1v-1c1.648 0 2.993-1.341 2.999-2.989 0.003-0.803-0.306-1.557-0.871-2.125s-1.317-0.883-2.118-0.886z" fill="#000000" />
	<path d="M19.363 32.012l-6.359-0.023-1.23-4.663c-1.219-0.425-2.348-1.034-3.368-1.819l-4.496 1.19-3.161-5.519 3.161-3.108c-0.126-0.718-0.189-1.428-0.186-2.116 0.001-0.555 0.046-1.123 0.131-1.697l-3.552-3.574 3.201-5.496 4.855 1.346c1.031-0.805 2.169-1.426 3.396-1.854l0.103-0.813 1.984 0.252-0.267 2.098-0.632 0.183c-1.366 0.394-2.612 1.065-3.704 1.996l-0.403 0.343-4.378-1.213-1.652 2.836 3.206 3.227-0.101 0.52c-0.122 0.629-0.185 1.252-0.186 1.854-0.003 0.718 0.080 1.467 0.248 2.229l0.119 0.54-2.841 2.792 1.632 2.849 4.002-1.060 0.398 0.334c1.058 0.891 2.271 1.543 3.603 1.938l0.539 0.16 1.122 4.252 3.282 0.012 1.216-4.563 0.459-0.188c0.976-0.4 1.885-0.957 2.703-1.653l0.404-0.345 4.38 1.214 1.651-2.837-3.204-3.223 0.1-0.52c0.121-0.631 0.184-1.257 0.187-1.859 0.001-0.443-0.035-0.906-0.115-1.456l-0.073-0.501 3.657-3.596-1.63-2.848-4.791 1.267-0.401-0.357c-0.852-0.759-1.796-1.356-2.809-1.777l-0.457-0.189-1.204-4.57-5.054-0.015 0.006-2 6.591 0.021 1.346 5.111c0.884 0.413 1.721 0.939 2.496 1.572l5.25-1.389 3.159 5.518-4.042 3.975c0.049 0.441 0.072 0.852 0.070 1.242-0.003 0.558-0.048 1.127-0.133 1.7l3.552 3.573-3.2 5.497-4.856-1.347c-0.734 0.572-1.525 1.055-2.362 1.439l-1.362 5.108z" fill="#000000" />
</svg>
