<?xml version="1.0" encoding="utf-8"?>
<!-- Generated by IcoMoon.io -->
<!DOCTYPE svg PUBLIC "-//W3C//DTD SVG 1.1//EN" "http://www.w3.org/Graphics/SVG/1.1/DTD/svg11.dtd">
<svg version="1.1" xmlns="http://www.w3.org/2000/svg" xmlns:xlink="http://www.w3.org/1999/xlink" width="32" height="32" viewBox="0 0 32 32">
<g>
</g>
	<path d="M2.999 9h2v13h-2v-13z" fill="#000000" />
	<path d="M26.999 9h2v13h-2v-13z" fill="#000000" />
	<path d="M17.249 32h-2.5l-9.369-5.008c-2.219-1.328-2.381-2.78-2.381-4.992h2c0 2.028 0.129 2.538 1.499 3.33l0.005 0.003 8.746 4.667h1.5l8.751-4.67c1.37-0.792 1.499-1.302 1.499-3.33h2c0 2.212-0.162 3.664-2.381 4.993l-0.148 0.087-9.221 4.92z" fill="#000000" />
	<path d="M8.999 16h14v2h-14v-2z" fill="#000000" />
	<path d="M8.999 20h14v2h-14v-2z" fill="#000000" />
	<path d="M8.999 12h7v2h-7v-2z" fill="#000000" />
	<path d="M28.999 7h-7c-2.543 0-4.774-1.363-6-3.397-1.226 2.034-3.457 3.397-6 3.397h-7v-2h7c2.757 0 5-2.243 5-5h2c0 2.757 2.243 5 5 5h7v2z" fill="#000000" />
</svg>
