<?xml version="1.0" encoding="utf-8"?>
<!-- Generated by IcoMoon.io -->
<!DOCTYPE svg PUBLIC "-//W3C//DTD SVG 1.1//EN" "http://www.w3.org/Graphics/SVG/1.1/DTD/svg11.dtd">
<svg version="1.1" xmlns="http://www.w3.org/2000/svg" xmlns:xlink="http://www.w3.org/1999/xlink" width="32" height="32" viewBox="0 0 32 32">
<g>
</g>
	<path d="M16 32c-2.206 0-4-1.794-4-4s1.794-4 4-4c2.206 0 4 1.794 4 4s-1.794 4-4 4zM16 26c-1.103 0-2 0.897-2 2s0.897 2 2 2c1.103 0 2-0.897 2-2s-0.897-2-2-2z" fill="#000000" />
	<path d="M9.217 20.62l-1.414-1.414c4.25-4.25 11.167-4.25 15.414 0l-1.414 1.414c-3.47-3.47-9.116-3.468-12.586 0z" fill="#000000" />
	<path d="M26.293 14.173c-5.676-5.672-14.912-5.674-20.586 0l-1.414-1.414c6.454-6.453 16.956-6.453 23.414 0l-1.414 1.414z" fill="#000000" />
	<path d="M30.293 7.918c-7.883-7.877-20.707-7.877-28.586 0l-1.414-1.414c8.659-8.656 22.749-8.658 31.414 0l-1.414 1.414z" fill="#000000" />
</svg>
