<?xml version="1.0" encoding="utf-8"?>
<!-- Generated by IcoMoon.io -->
<!DOCTYPE svg PUBLIC "-//W3C//DTD SVG 1.1//EN" "http://www.w3.org/Graphics/SVG/1.1/DTD/svg11.dtd">
<svg version="1.1" xmlns="http://www.w3.org/2000/svg" xmlns:xlink="http://www.w3.org/1999/xlink" width="32" height="32" viewBox="0 0 32 32">
<g>
</g>
	<path d="M19.204 21h-6.411l-1.96-6.236 5.171-3.859 5.163 3.904-1.963 6.191zM14.262 19h3.478l1.094-3.448-2.837-2.146-2.829 2.111 1.094 3.483z" fill="#000000" />
	<path d="M15.992 9.179l-4.573-3.265 1.162-1.628 3.427 2.446 3.421-2.379 1.142 1.642z" fill="#000000" />
	<path d="M27.59 16.331l-4.943-2.582 0.775-5.566 1.98 0.275-0.579 4.171 3.693 1.93z" fill="#000000" />
	<path d="M20.516 28.307l-1.891-0.651 1.813-5.273 5.622-0.067 0.023 2-4.211 0.051z" fill="#000000" />
	<path d="M4.033 16.331l-0.926-1.772 3.693-1.93-0.579-4.171 1.98-0.275 0.775 5.566z" fill="#000000" />
	<path d="M11.107 28.307l-1.356-3.94-4.211-0.051 0.023-2 5.622 0.067 1.813 5.273z" fill="#000000" />
	<path d="M16 32c-8.822 0-16-7.178-16-16s7.178-16 16-16 16 7.178 16 16-7.178 16-16 16zM16 2c-7.72 0-14 6.28-14 14s6.28 14 14 14 14-6.28 14-14-6.28-14-14-14z" fill="#000000" />
</svg>
