<?xml version="1.0" encoding="utf-8"?>
<!-- Generated by IcoMoon.io -->
<!DOCTYPE svg PUBLIC "-//W3C//DTD SVG 1.1//EN" "http://www.w3.org/Graphics/SVG/1.1/DTD/svg11.dtd">
<svg version="1.1" xmlns="http://www.w3.org/2000/svg" xmlns:xlink="http://www.w3.org/1999/xlink" width="32" height="32" viewBox="0 0 32 32">
<g>
</g>
	<path d="M13 32v0c-2.757 0-5-2.243-5-5v-15c0-4.411 3.589-8 8-8s8 3.589 8 8v15c0 2.756-2.243 4.999-5 4.999l-6 0.001zM16 6c-3.309 0-6 2.691-6 6v15c0 1.654 1.346 3 3 3l6-0.001c1.654 0 3-1.346 3-3v-14.999c0-3.309-2.691-6-6-6z" fill="#000000" />
	<path d="M13.996 27l-2-0.001 0.004-14.999c0-2.205 1.794-4 4-4v2c-1.103 0-2 0.897-2 2l-0.004 15z" fill="#000000" />
	<path d="M13 0h6v2h-6v-2z" fill="#000000" />
</svg>
