<?xml version="1.0" encoding="utf-8"?>
<!-- Generated by IcoMoon.io -->
<!DOCTYPE svg PUBLIC "-//W3C//DTD SVG 1.1//EN" "http://www.w3.org/Graphics/SVG/1.1/DTD/svg11.dtd">
<svg version="1.1" xmlns="http://www.w3.org/2000/svg" xmlns:xlink="http://www.w3.org/1999/xlink" width="32" height="32" viewBox="0 0 32 32">
<g>
</g>
	<path d="M21.818 32h-11.678l-3.353-19h18.384l-3.353 19zM11.818 30h8.322l2.647-15h-13.616l2.647 15z" fill="#000000" />
	<path d="M13.913 17.844l1.41 9-1.976 0.31-1.41-9 1.976-0.31z" fill="#000000" />
	<path d="M24.979 11h-2c0-0.946-0.185-1.863-0.55-2.726l1.842-0.779c0.47 1.11 0.708 2.289 0.708 3.505z" fill="#000000" />
	<path d="M8.979 11h-2c0-4.962 4.038-9 9-9 1.196 0 2.359 0.231 3.457 0.688l-0.768 1.847c-0.853-0.355-1.757-0.535-2.689-0.535-3.86 0-7 3.14-7 7z" fill="#000000" />
	<path d="M12.979 11h-2c0-2.757 2.243-5 5-5v2c-1.654 0-3 1.346-3 3z" fill="#000000" />
	<path d="M23.164 0.483l1.712 1.034-6.042 10-1.712-1.034 6.042-10z" fill="#000000" />
</svg>
