<?xml version="1.0" encoding="utf-8"?>
<!-- Generated by IcoMoon.io -->
<!DOCTYPE svg PUBLIC "-//W3C//DTD SVG 1.1//EN" "http://www.w3.org/Graphics/SVG/1.1/DTD/svg11.dtd">
<svg version="1.1" xmlns="http://www.w3.org/2000/svg" xmlns:xlink="http://www.w3.org/1999/xlink" width="32" height="32" viewBox="0 0 32 32">
<g>
</g>
	<path d="M32 32h-32v-32h32v32zM2 30h28v-28h-28v28z" fill="#000000" />
	<path d="M16 27c-6.065 0-11-4.935-11-11s4.935-11 11-11 11 4.935 11 11-4.935 11-11 11zM16 7c-4.962 0-9 4.037-9 9s4.038 9 9 9 9-4.037 9-9-4.038-9-9-9z" fill="#000000" />
	<path d="M13 16h-2c0-2.757 2.243-5 5-5v2c-1.654 0-3 1.346-3 3z" fill="#000000" />
	<path d="M26 4h2v2h-2v-2z" fill="#000000" />
	<path d="M4 4h2v2h-2v-2z" fill="#000000" />
	<path d="M26 26h2v2h-2v-2z" fill="#000000" />
	<path d="M4 26h2v2h-2v-2z" fill="#000000" />
</svg>
