<?xml version="1.0" encoding="utf-8"?>
<!-- Generated by IcoMoon.io -->
<!DOCTYPE svg PUBLIC "-//W3C//DTD SVG 1.1//EN" "http://www.w3.org/Graphics/SVG/1.1/DTD/svg11.dtd">
<svg version="1.1" xmlns="http://www.w3.org/2000/svg" xmlns:xlink="http://www.w3.org/1999/xlink" width="32" height="32" viewBox="0 0 32 32">
<g>
</g>
	<path d="M15 4h2v4h-2v-4z" fill="#000000" />
	<path d="M24 15h4v2h-4v-2z" fill="#000000" />
	<path d="M4 15h4v2h-4v-2z" fill="#000000" />
	<path d="M8.223 6.807l2.828 2.828-1.414 1.414-2.828-2.828 1.414-1.414z" fill="#000000" />
	<path d="M23.787 6.801l1.4 1.428-8.848 8.678-1.4-1.428 8.848-8.678z" fill="#000000" />
	<path d="M16 32c-8.822 0-16-7.178-16-16s7.178-16 16-16c3.884 0 7.624 1.406 10.53 3.959l-1.32 1.502c-2.541-2.232-5.812-3.461-9.21-3.461-7.72 0-14 6.28-14 14s6.28 14 14 14 14-6.28 14-14c0-3.397-1.229-6.668-3.461-9.211l1.502-1.318c2.553 2.906 3.959 6.645 3.959 10.529 0 8.822-7.178 16-16 16z" fill="#000000" />
	<path d="M10.928 25.799l-1.696-1.059c1.462-2.342 3.993-3.74 6.768-3.74 2.777 0 5.308 1.398 6.769 3.74l-1.697 1.059c-1.093-1.752-2.989-2.799-5.072-2.799-2.081 0-3.977 1.047-5.072 2.799z" fill="#000000" />
</svg>
