<?xml version="1.0" encoding="utf-8"?>
<!-- Generated by IcoMoon.io -->
<!DOCTYPE svg PUBLIC "-//W3C//DTD SVG 1.1//EN" "http://www.w3.org/Graphics/SVG/1.1/DTD/svg11.dtd">
<svg version="1.1" xmlns="http://www.w3.org/2000/svg" xmlns:xlink="http://www.w3.org/1999/xlink" width="32" height="32" viewBox="0 0 32 32">
<g>
</g>
	<path d="M16 31.414l-15.414-15.414 13.707-13.707 1.414 1.414-12.293 12.293 12.586 12.586 12.293-12.293 1.414 1.414z" fill="#000000" />
	<path d="M32 15h-2v-13h-13v-2h15z" fill="#000000" />
	<path d="M22.002 15h-0.031c-2.757-0.018-4.986-2.273-4.971-5.029 0.016-2.741 2.258-4.971 4.998-4.971 2.788 0.018 5.018 2.273 5.002 5.029-0.016 2.741-2.258 4.971-4.998 4.971zM22.018 7c-1.664 0-3.008 1.338-3.018 2.982-0.010 1.654 1.328 3.008 2.982 3.018l0.020 1v-1c1.644 0 2.988-1.338 2.998-2.982 0.010-1.655-1.328-3.008-2.982-3.018z" fill="#000000" />
</svg>
