<?xml version="1.0" encoding="utf-8"?>
<!-- Generated by IcoMoon.io -->
<!DOCTYPE svg PUBLIC "-//W3C//DTD SVG 1.1//EN" "http://www.w3.org/Graphics/SVG/1.1/DTD/svg11.dtd">
<svg version="1.1" xmlns="http://www.w3.org/2000/svg" xmlns:xlink="http://www.w3.org/1999/xlink" width="32" height="32" viewBox="0 0 32 32">
<g>
</g>
	<path d="M12.994 24.025c-7.168 0-13-6-13-13.374v-6.626h26v6.626c0 7.375-5.831 13.374-13 13.374zM1.994 6.025v4.626c0 6.271 4.935 11.374 11 11.374s11-5.103 11-11.374v-4.626h-22z" fill="#000000" />
	<path d="M13.006 20.025c-4.962 0-9-4.205-9-9.374v-1.626h2v1.626c0 4.066 3.14 7.374 7 7.374v2z" fill="#000000" />
	<path d="M29.006 14.025h-1.038v-2h1.038c0.551 0 1-0.449 1-1v-2c0-0.551-0.449-1-1-1h-1.038v-2h1.038c1.654 0 3 1.346 3 3v2.025c-0.014 1.643-1.355 2.975-3 2.975z" fill="#000000" />
	<path d="M4.994 25.975h16v2h-16v-2z" fill="#000000" />
</svg>
