<?xml version="1.0" encoding="utf-8"?>
<!-- Generated by IcoMoon.io -->
<!DOCTYPE svg PUBLIC "-//W3C//DTD SVG 1.1//EN" "http://www.w3.org/Graphics/SVG/1.1/DTD/svg11.dtd">
<svg version="1.1" xmlns="http://www.w3.org/2000/svg" xmlns:xlink="http://www.w3.org/1999/xlink" width="32" height="32" viewBox="0 0 32 32">
<g>
</g>
	<path d="M14.012 16.849l1.977 0.305-2.005 12.999-1.977-0.305 2.005-12.999z" fill="#000000" />
	<path d="M18.98 14.803l3 15-1.961 0.392-3-15 1.961-0.392z" fill="#000000" />
	<path d="M5.693 18.279l-2.737-7.517 21.797-7.832 2.736 7.519-21.796 7.83zM5.522 11.966l1.369 3.759 18.032-6.479-1.368-3.759-18.033 6.479z" fill="#000000" />
	<path d="M29.367 9.759l-0.683-1.879c0.501-0.183 0.902-0.55 1.128-1.034s0.25-1.027 0.067-1.527c-0.183-0.504-0.55-0.904-1.034-1.13-0.484-0.227-1.027-0.249-1.529-0.067l-0.684-1.879c1.004-0.367 2.090-0.317 3.058 0.133 0.969 0.452 1.703 1.254 2.068 2.259 0.365 1.003 0.318 2.089-0.134 3.057-0.451 0.967-1.253 1.702-2.257 2.067z" fill="#000000" />
	<path d="M3.004 18.228c-1.226 0-2.379-0.757-2.822-1.974-0.565-1.556 0.239-3.28 1.793-3.845l0.684 1.879c-0.25 0.092-0.45 0.274-0.563 0.518-0.113 0.242-0.125 0.514-0.034 0.765 0.189 0.518 0.764 0.783 1.282 0.598l0.684 1.879c-0.339 0.122-0.684 0.18-1.024 0.18z" fill="#000000" />
</svg>
