<?xml version="1.0" encoding="utf-8"?>
<!-- Generated by IcoMoon.io -->
<!DOCTYPE svg PUBLIC "-//W3C//DTD SVG 1.1//EN" "http://www.w3.org/Graphics/SVG/1.1/DTD/svg11.dtd">
<svg version="1.1" xmlns="http://www.w3.org/2000/svg" xmlns:xlink="http://www.w3.org/1999/xlink" width="32" height="32" viewBox="0 0 32 32">
<g>
</g>
	<path d="M21.781 10h-10.562l-2.5-10h15.562l-2.5 10zM12.781 8h7.438l1.5-6h-10.438l1.5 6z" fill="#000000" />
	<path d="M16 32.152l-8.122-4.641 3.142-15.707 1.96 0.392-2.858 14.293 5.878 3.359 5.92-3.383-1.911-14.333 1.982-0.264 2.089 15.667z" fill="#000000" />
	<path d="M18.835 20.014l0.329 1.973-6 1.001-0.329-1.973 6-1.001z" fill="#000000" />
	<path d="M18.835 24.015l0.329 1.973-6 1.001-0.329-1.973 6-1.001z" fill="#000000" />
	<path d="M18.835 16.014l0.329 1.973-6 1.001-0.329-1.973 6-1.001z" fill="#000000" />
</svg>
