<?xml version="1.0" encoding="utf-8"?>
<!-- Generated by IcoMoon.io -->
<!DOCTYPE svg PUBLIC "-//W3C//DTD SVG 1.1//EN" "http://www.w3.org/Graphics/SVG/1.1/DTD/svg11.dtd">
<svg version="1.1" xmlns="http://www.w3.org/2000/svg" xmlns:xlink="http://www.w3.org/1999/xlink" width="32" height="32" viewBox="0 0 32 32">
<g>
</g>
	<path d="M16 32c-7.168 0-13-5.832-13-13 0-5.261 3.138-9.972 7.994-12.002l0.771 1.845c-4.11 1.718-6.765 5.705-6.765 10.157 0 6.065 4.935 11 11 11 5.68 0 10.495-4.429 10.963-10.083l1.994 0.165c-0.554 6.683-6.245 11.918-12.957 11.918z" fill="#000000" />
	<path d="M26.953 18.081c-0.334-4.104-2.908-7.644-6.719-9.239l0.771-1.845c4.504 1.884 7.546 6.069 7.941 10.921l-1.993 0.163z" fill="#000000" />
	<path d="M19 9h-2v-5h3v-2h-8v2h3v5h-2v-3h-3v-6h12v6h-3z" fill="#000000" />
	<path d="M28.293 4.293l1.414 1.414-3 3-1.414-1.414 3-3z" fill="#000000" />
	<path d="M28.293 2.878l2.828 2.828-1.414 1.414-2.828-2.828 1.414-1.414z" fill="#000000" />
	<path d="M24 20h-9v-9h2v7h7z" fill="#000000" />
</svg>
