<?xml version="1.0" encoding="utf-8"?>
<!-- Generated by IcoMoon.io -->
<!DOCTYPE svg PUBLIC "-//W3C//DTD SVG 1.1//EN" "http://www.w3.org/Graphics/SVG/1.1/DTD/svg11.dtd">
<svg version="1.1" xmlns="http://www.w3.org/2000/svg" xmlns:xlink="http://www.w3.org/1999/xlink" width="32" height="32" viewBox="0 0 32 32">
<g>
</g>
	<path d="M22.376 23.431l-7.376-7.159v-10.422h2v9.577l6.769 6.568z" fill="#000000" />
	<path d="M16.078 31.84c-4.14 0-8.253-1.593-11.338-4.677l1.414-1.414c4.69 4.689 12.1 5.439 17.619 1.783l1.105 1.667c-2.679 1.774-5.747 2.641-8.8 2.641z" fill="#000000" />
	<path d="M29.401 24.674l-1.668-1.104c3.658-5.52 2.909-12.929-1.781-17.62l1.414-1.414c5.361 5.36 6.216 13.83 2.035 20.138z" fill="#000000" />
	<path d="M32.052 15.863h-2c0-6.628-4.754-12.403-11.305-13.733l0.398-1.96c7.479 1.518 12.907 8.118 12.907 15.693z" fill="#000000" />
	<path d="M15.947 31.85c-8.822 0-16-7.178-16-16 0-7.58 5.384-14.173 12.801-15.679l0.397 1.96c-6.488 1.317-11.198 7.086-11.198 13.719 0 7.72 6.28 14 14 14v2z" fill="#000000" />
</svg>
