<?xml version="1.0" encoding="utf-8"?>
<!-- Generated by IcoMoon.io -->
<!DOCTYPE svg PUBLIC "-//W3C//DTD SVG 1.1//EN" "http://www.w3.org/Graphics/SVG/1.1/DTD/svg11.dtd">
<svg version="1.1" xmlns="http://www.w3.org/2000/svg" xmlns:xlink="http://www.w3.org/1999/xlink" width="32" height="32" viewBox="0 0 32 32">
<g>
</g>
	<path d="M4 7c0 0 0 0 0 0-0.802 0-1.556-0.312-2.122-0.879l-1.414-1.414 4.242-4.242 1.414 1.414c0.568 0.566 0.88 1.32 0.88 2.123 0 0.801-0.313 1.555-0.881 2.121-0.564 0.565-1.318 0.877-2.119 0.877zM3.292 4.707c0.189 0.189 0.44 0.293 0.708 0.293v0c0.267 0 0.518-0.104 0.706-0.292 0.19-0.19 0.294-0.44 0.294-0.706 0-0.268-0.104-0.52-0.293-0.708v-0.001l-1.415 1.414z" fill="#000000" />
	<path d="M6.107 4.695l6.328 6.103-1.388 1.44-6.328-6.103 1.388-1.44z" fill="#000000" />
	<path d="M21.984 20.346l5.464 5.464-1.414 1.414-5.464-5.464 1.414-1.414z" fill="#000000" />
	<path d="M26.742 31.514c-1.277 0-2.554-0.485-3.526-1.457l-6.084-6.084 1.414-1.414 6.084 6.084c1.167 1.166 3.066 1.162 4.236-0.007 1.169-1.169 1.167-3.075-0.006-4.249l-6.072-6.071 1.414-1.414 6.072 6.071c1.953 1.955 1.955 5.129 0.006 7.078-0.976 0.974-2.258 1.463-3.538 1.463z" fill="#000000" />
	<path d="M23.516 15.486v0c-1.87-0.001-3.627-0.729-4.95-2.052-1.323-1.321-2.051-3.079-2.051-4.948 0-1.871 0.728-3.629 2.051-4.951l1.828-1.828 1.414 1.414-1.828 1.828c-0.945 0.945-1.466 2.201-1.465 3.536 0 1.335 0.521 2.591 1.465 3.535s2.2 1.466 3.535 1.466v0c1.335 0 2.59-0.521 3.535-1.466l1.828-1.828 1.414 1.414-1.828 1.828c-1.321 1.324-3.079 2.052-4.948 2.052z" fill="#000000" />
	<path d="M30.293 11.606l-2.121-2.121-0.707 0.707c-0.755 0.756-1.759 1.172-2.828 1.172h-0.001c-1.068-0.001-2.073-0.417-2.828-1.172s-1.171-1.759-1.171-2.828c0-1.067 0.416-2.073 1.171-2.829l0.708-0.707-2.121-2.121 1.414-1.414 3.535 3.535-2.121 2.121c-0.378 0.379-0.586 0.881-0.586 1.415s0.208 1.036 0.586 1.413c0.377 0.379 0.879 0.587 1.414 0.587 0 0 0 0 0 0 0.534 0 1.036-0.208 1.414-0.586l2.122-2.121 3.535 3.535-1.415 1.414z" fill="#000000" />
	<path d="M4.031 25.969h2v2h-2v-2z" fill="#000000" />
	<path d="M14.568 12.882l3.967 3.922-1.406 1.422-3.967-3.922 1.406-1.422z" fill="#000000" />
	<path d="M5 32c-1.335 0-2.591-0.52-3.536-1.465-0.943-0.943-1.464-2.199-1.464-3.535s0.521-2.592 1.465-3.535l0.119-0.102 10.346-7.516 1.176 1.617-10.278 7.468c-0.535 0.559-0.828 1.291-0.828 2.068 0 0.801 0.312 1.555 0.879 2.121 1.116 1.117 3.052 1.137 4.189 0.051l7.468-10.275 1.618 1.176-7.618 10.462c-0.944 0.944-2.2 1.465-3.536 1.465z" fill="#000000" />
</svg>
