<?xml version="1.0" encoding="utf-8"?>
<!-- Generated by IcoMoon.io -->
<!DOCTYPE svg PUBLIC "-//W3C//DTD SVG 1.1//EN" "http://www.w3.org/Graphics/SVG/1.1/DTD/svg11.dtd">
<svg version="1.1" xmlns="http://www.w3.org/2000/svg" xmlns:xlink="http://www.w3.org/1999/xlink" width="32" height="32" viewBox="0 0 32 32">
<g>
</g>
	<path d="M29 7h-26v-6h26v6zM5 5h22v-2h-22v2z" fill="#000000" />
	<path d="M7.709 17.016l-4.323-0.097 0.045-1.999 2.85 0.064 1.773-5.301 1.896 0.634z" fill="#000000" />
	<path d="M31.105 31h-11.826l-3.279-9.818-3.28 9.818h-11.825l2.11-21.1 1.99 0.2-1.89 18.9h8.175l4.72-14.131 4.721 14.131h8.174l-1.89-18.9 1.99-0.2z" fill="#000000" />
	<path d="M24.29 17.016l-2.24-6.699 1.896-0.634 1.774 5.301 2.849-0.064 0.045 1.999z" fill="#000000" />
</svg>
