<?xml version="1.0" encoding="utf-8"?>
<!-- Generated by IcoMoon.io -->
<!DOCTYPE svg PUBLIC "-//W3C//DTD SVG 1.1//EN" "http://www.w3.org/Graphics/SVG/1.1/DTD/svg11.dtd">
<svg version="1.1" xmlns="http://www.w3.org/2000/svg" xmlns:xlink="http://www.w3.org/1999/xlink" width="32" height="32" viewBox="0 0 32 32">
<g>
</g>
	<path d="M20 23h-20v-20h20v20zM2 21h16v-16h-16v16z" fill="#000000" />
	<path d="M32 23h-10v-2h8v-6.764l-2.618-5.236h-3.382v6h4v2h-6v-10h6.618l3.382 6.764z" fill="#000000" />
	<path d="M4 15h12v2h-12v-2z" fill="#000000" />
	<path d="M27 29c-2.206 0-4-1.794-4-4h2c0 1.103 0.897 2 2 2s2-0.897 2-2h2c0 2.206-1.794 4-4 4z" fill="#000000" />
	<path d="M8 29c-2.206 0-4-1.794-4-4h2c0 1.103 0.897 2 2 2s2-0.897 2-2h2c0 2.206-1.794 4-4 4z" fill="#000000" />
</svg>
