<?xml version="1.0" encoding="utf-8"?>
<!-- Generated by IcoMoon.io -->
<!DOCTYPE svg PUBLIC "-//W3C//DTD SVG 1.1//EN" "http://www.w3.org/Graphics/SVG/1.1/DTD/svg11.dtd">
<svg version="1.1" xmlns="http://www.w3.org/2000/svg" xmlns:xlink="http://www.w3.org/1999/xlink" width="32" height="32" viewBox="0 0 32 32">
<g>
</g>
	<path d="M8.454 15.34l-1.886-0.666c1.412-3.992 5.203-6.674 9.432-6.674v2c-3.383 0-6.416 2.146-7.546 5.34z" fill="#000000" />
	<path d="M15 0h2v2h-2v-2z" fill="#000000" />
	<path d="M15 21h2v8h-2v-8z" fill="#000000" />
	<path d="M14 32c-1.654 0-3-1.346-3-3h2c0 0.552 0.449 1 1 1s1-0.448 1-1h2c0 1.654-1.345 3-3 3z" fill="#000000" />
	<path d="M30 19h-28v-1c0-7.72 6.28-14 14-14 7.719 0 14 6.28 14 14v1zM4.041 17h23.918c-0.51-6.15-5.679-11-11.959-11s-11.449 4.85-11.959 11z" fill="#000000" />
</svg>
