<?xml version="1.0" encoding="utf-8"?>
<!-- Generated by IcoMoon.io -->
<!DOCTYPE svg PUBLIC "-//W3C//DTD SVG 1.1//EN" "http://www.w3.org/Graphics/SVG/1.1/DTD/svg11.dtd">
<svg version="1.1" xmlns="http://www.w3.org/2000/svg" xmlns:xlink="http://www.w3.org/1999/xlink" width="32" height="32" viewBox="0 0 32 32">
<g>
</g>
	<path d="M12.001 18c-4.963 0-9.001-4.037-9.001-8.999 0-4.963 4.038-9.001 9.001-9.001 4.962 0 8.999 4.038 8.999 9.001 0 4.962-4.037 8.999-8.999 8.999zM12.001 2c-3.86 0-7.001 3.141-7.001 7.001 0 3.859 3.141 6.999 7.001 6.999 3.859 0 6.999-3.14 6.999-6.999 0-3.86-3.14-7.001-6.999-7.001z" fill="#000000" />
	<path d="M23 18v-2c2.757 0 5-2.243 5-4.999 0-2.757-2.243-5-5-5v-2.001c3.86 0 7 3.141 7 7 0 3.86-3.14 7-7 7z" fill="#000000" />
	<path d="M32 30h-6v-2h3.694l-0.742-5.197-3.201-0.86 0.498-1.937 4.494 1.191z" fill="#000000" />
	<path d="M24.125 32h-24.25l1.234-10.422 4.716-1.529 0.617 1.902-3.498 1.134-0.819 6.915h19.75l-0.819-6.915-3.498-1.134 0.617-1.902 4.716 1.529z" fill="#000000" />
</svg>
