<?xml version="1.0" encoding="utf-8"?>
<!-- Generated by IcoMoon.io -->
<!DOCTYPE svg PUBLIC "-//W3C//DTD SVG 1.1//EN" "http://www.w3.org/Graphics/SVG/1.1/DTD/svg11.dtd">
<svg version="1.1" xmlns="http://www.w3.org/2000/svg" xmlns:xlink="http://www.w3.org/1999/xlink" width="32" height="32" viewBox="0 0 32 32">
<g>
</g>
	<path d="M15.778 18c-4.962 0-9-4.038-9-9s4.038-9 9-9c4.962 0 8.999 4.038 8.999 9s-4.037 9-8.999 9zM15.778 2c-3.86 0-7 3.14-7 7s3.14 7 7 7c3.859 0 6.999-3.14 6.999-7s-3.139-7-6.999-7z" fill="#000000" />
	<path d="M29.117 32h-26.234l1.189-10.706 5.556-2.223 0.744 1.858-4.444 1.777-0.811 7.294h21.766l-0.811-7.294-4.444-1.777 0.744-1.858 5.556 2.223z" fill="#000000" />
</svg>
