<?xml version="1.0" encoding="utf-8"?>
<!-- Generated by IcoMoon.io -->
<!DOCTYPE svg PUBLIC "-//W3C//DTD SVG 1.1//EN" "http://www.w3.org/Graphics/SVG/1.1/DTD/svg11.dtd">
<svg version="1.1" xmlns="http://www.w3.org/2000/svg" xmlns:xlink="http://www.w3.org/1999/xlink" width="32" height="32" viewBox="0 0 32 32">
<g>
</g>
	<path d="M20 29.822l-12.537-7.978 1.074-1.688 9.463 6.022v-20.356l-9.463 6.022-1.074-1.688 12.537-7.978z" fill="#000000" />
	<path d="M14.484 11.142l1.029 1.715-5 3.001-1.029-1.715 5-3.001z" fill="#000000" />
	<path d="M6 22h-6v-12h6v12zM2 20h2v-8h-2v8z" fill="#000000" />
	<path d="M22 22v-2c2.206 0 4-1.794 4-4s-1.794-4-4-4v-2c3.309 0 6 2.691 6 6s-2.691 6-6 6z" fill="#000000" />
	<path d="M22 26v-2c4.411 0 8-3.589 8-8s-3.589-8-8-8v-2c5.514 0 10 4.486 10 10s-4.486 10-10 10z" fill="#000000" />
	<path d="M22 18v-4c1.103 0 2 0.897 2 2s-0.897 2-2 2z" fill="#000000" />
</svg>
