<?xml version="1.0" encoding="utf-8"?>
<!-- Generated by IcoMoon.io -->
<!DOCTYPE svg PUBLIC "-//W3C//DTD SVG 1.1//EN" "http://www.w3.org/Graphics/SVG/1.1/DTD/svg11.dtd">
<svg version="1.1" xmlns="http://www.w3.org/2000/svg" xmlns:xlink="http://www.w3.org/1999/xlink" width="32" height="32" viewBox="0 0 32 32">
<g>
</g>
	<path d="M16 25c-4.963 0-9-4.037-9-9s4.037-9 9-9 9 4.037 9 9-4.037 9-9 9zM16 9c-3.859 0-7 3.141-7 7s3.141 7 7 7 7-3.141 7-7-3.141-7-7-7z" fill="#000000" />
	<path d="M22.168 8.555l-1.703-2.555h-8.93l-1.703 2.555-1.664-1.11 2.297-3.445h11.070l2.297 3.445z" fill="#000000" />
	<path d="M22 5h-2v-3h-8v3h-2v-5h12z" fill="#000000" />
	<path d="M21.536 28h-11.069l-2.297-3.447 1.664-1.11 1.703 2.557h8.929l1.703-2.557 1.664 1.11z" fill="#000000" />
	<path d="M22.001 32h-11.999v-5h2v3h7.999v-3h2z" fill="#000000" />
	<path d="M21 17h-6v-6h2v4h4z" fill="#000000" />
</svg>
