<?xml version="1.0" encoding="utf-8"?>
<!-- Generated by IcoMoon.io -->
<!DOCTYPE svg PUBLIC "-//W3C//DTD SVG 1.1//EN" "http://www.w3.org/Graphics/SVG/1.1/DTD/svg11.dtd">
<svg version="1.1" xmlns="http://www.w3.org/2000/svg" xmlns:xlink="http://www.w3.org/1999/xlink" width="32" height="32" viewBox="0 0 32 32">
<g>
</g>
	<path d="M19 15.999v-2c1.654 0 3-1.346 3-3h2c0 2.757-2.243 5-5 5z" fill="#000000" />
	<path d="M13 0h6v2h-6v-2z" fill="#000000" />
	<path d="M19 32h-6c-2.757 0-5-2.243-5-5v-8c0-1.634 0.788-3.087 2.003-4-1.215-0.913-2.003-2.366-2.003-4v-2c0-2.757 2.244-5 5.002-5h6c2.756 0 4.998 2.242 4.998 4.999v2.001h-2v-2.001c0-1.654-1.345-2.999-2.998-2.999h-6c-1.655 0-3.002 1.346-3.002 3v2c0 1.654 1.346 3 3 3v2c-1.654 0-3 1.346-3 3v8c0 1.654 1.346 3 3 3h6c1.654 0 3-1.346 3-3.001v-7.999c0-1.654-1.346-3-3-3v-2c2.757 0 5 2.243 5 5v7.999c0 2.757-2.243 5.001-5 5.001z" fill="#000000" />
	<path d="M14 11h-2c0-1.654 1.346-3 3-3v2c-0.551 0-1 0.449-1 1z" fill="#000000" />
	<path d="M15 28.006c-1.654 0-3-1.349-3-3.006v-6h2v6c0 0.555 0.449 1.006 1 1.006v2z" fill="#000000" />
</svg>
