<?xml version="1.0" encoding="utf-8"?>
<!-- Generated by IcoMoon.io -->
<!DOCTYPE svg PUBLIC "-//W3C//DTD SVG 1.1//EN" "http://www.w3.org/Graphics/SVG/1.1/DTD/svg11.dtd">
<svg version="1.1" xmlns="http://www.w3.org/2000/svg" xmlns:xlink="http://www.w3.org/1999/xlink" width="32" height="32" viewBox="0 0 32 32">
<g>
</g>
	<path d="M32 29h-32v-16h2v14h28v-14h2z" fill="#000000" />
	<path d="M32 11h-32v-8h32v8zM2 9h28v-4h-28v4z" fill="#000000" />
	<path d="M4 6h2v2h-2v-2z" fill="#000000" />
	<path d="M7 6h2v2h-2v-2z" fill="#000000" />
	<path d="M10 6h2v2h-2v-2z" fill="#000000" />
	<path d="M12 25h-8v-12h8v12zM6 23h4v-8h-4v8z" fill="#000000" />
	<path d="M28 25h-14v-12h14v12zM16 23h10v-8h-10v8z" fill="#000000" />
</svg>
