<?xml version="1.0" encoding="utf-8"?>
<!-- Generated by IcoMoon.io -->
<!DOCTYPE svg PUBLIC "-//W3C//DTD SVG 1.1//EN" "http://www.w3.org/Graphics/SVG/1.1/DTD/svg11.dtd">
<svg version="1.1" xmlns="http://www.w3.org/2000/svg" xmlns:xlink="http://www.w3.org/1999/xlink" width="32" height="32" viewBox="0 0 32 32">
<g>
</g>
	<path d="M5.993 26.003c-0.978 0-1.947-0.242-2.833-0.718-2.914-1.566-4.010-5.212-2.444-8.126 1.567-2.914 5.212-4.010 8.125-2.444l-0.946 1.762c-1.944-1.043-4.374-0.313-5.417 1.63-1.044 1.942-0.313 4.373 1.63 5.417 0.941 0.505 2.021 0.615 3.046 0.307 1.023-0.308 1.865-0.995 2.371-1.937l1.762 0.947c-0.758 1.411-2.021 2.442-3.556 2.904-0.573 0.173-1.157 0.258-1.738 0.258z" fill="#000000" />
	<path d="M30.699 11.091l0.606 1.906-25 7.955-0.606-1.906 25-7.955z" fill="#000000" />
	<path d="M12.249 15.658l-8.452-9.658h21.204v6h-2v-4h-14.796l5.548 6.342z" fill="#000000" />
	<path d="M18.781 19.376l4 5-1.562 1.249-4-5 1.562-1.249z" fill="#000000" />
</svg>
