<?xml version="1.0" encoding="utf-8"?>
<!-- Generated by IcoMoon.io -->
<!DOCTYPE svg PUBLIC "-//W3C//DTD SVG 1.1//EN" "http://www.w3.org/Graphics/SVG/1.1/DTD/svg11.dtd">
<svg version="1.1" xmlns="http://www.w3.org/2000/svg" xmlns:xlink="http://www.w3.org/1999/xlink" width="32" height="32" viewBox="0 0 32 32">
<g>
</g>
	<path d="M16 18c-6.617 0-12-5.383-12-12v-6h24v6c0 6.617-5.383 12-12 12zM6 2v4c0 5.514 4.486 10 10 10s10-4.486 10-10v-4h-20z" fill="#000000" />
	<path d="M15 20h2v12h-2v-12z" fill="#000000" />
	<path d="M7 30h18v2h-18v-2z" fill="#000000" />
	<path d="M16 14c-4.411 0-8-3.589-8-8v-1h2v1c0 3.309 2.691 6 6 6v2z" fill="#000000" />
</svg>
