<?xml version="1.0" encoding="utf-8"?>
<!-- Generated by IcoMoon.io -->
<!DOCTYPE svg PUBLIC "-//W3C//DTD SVG 1.1//EN" "http://www.w3.org/Graphics/SVG/1.1/DTD/svg11.dtd">
<svg version="1.1" xmlns="http://www.w3.org/2000/svg" xmlns:xlink="http://www.w3.org/1999/xlink" width="32" height="32" viewBox="0 0 32 32">
<g>
</g>
	<path d="M16 32c-8.822 0-16-7.178-16-16s7.178-16 16-16 16 7.178 16 16-7.178 16-16 16zM16 2c-7.72 0-14 6.28-14 14s6.28 14 14 14 14-6.28 14-14-6.28-14-14-14z" fill="#000000" />
	<path d="M17.545 28.559l1.403-8.975-6.519-3.275 3.893-4.805-1.366-0.485-5.296 1.215-3.228-2.469 1.214-1.588 2.483 1.897 4.948-1.136 4.578 1.628-4.108 5.071 5.602 2.814-0.78 4.99 3.593-3.133 2.028-7.548 1.932 0.519-2.187 8.136z" fill="#000000" />
	<path d="M10.476 25.177l-1.963-0.385 0.665-3.39-4.043-0.407 0.2-1.99 6.229 0.628z" fill="#000000" />
</svg>
