<?xml version="1.0" encoding="utf-8"?>
<!-- Generated by IcoMoon.io -->
<!DOCTYPE svg PUBLIC "-//W3C//DTD SVG 1.1//EN" "http://www.w3.org/Graphics/SVG/1.1/DTD/svg11.dtd">
<svg version="1.1" xmlns="http://www.w3.org/2000/svg" xmlns:xlink="http://www.w3.org/1999/xlink" width="32" height="32" viewBox="0 0 32 32">
<g>
</g>
	<path d="M14.006 27.998c-4.097 0-8.194-1.56-11.313-4.678l1.414-1.414c5.459 5.458 14.341 5.456 19.8 0 5.458-5.46 5.458-14.342 0-19.799l1.414-1.414c6.238 6.236 6.238 16.387 0 22.627-3.12 3.118-7.217 4.678-11.315 4.678z" fill="#000000" />
	<path d="M14 24c-6.617 0-12-5.383-12-12s5.383-12 12-12 12 5.383 12 12-5.384 12-12 12zM14 2c-5.515 0-10 4.486-10 10s4.486 10 10 10 10-4.486 10-10-4.486-10-10-10z" fill="#000000" />
	<path d="M9 30h10v2h-10v-2z" fill="#000000" />
	<path d="M14.444 20.716l1.015-7.093-4.304-2.365 2.481-3.345-0.397-0.154-3.487 0.874-2.232-1.865 1.283-1.536 1.45 1.213 3.117-0.782 3.434 1.334-2.677 3.612 3.508 1.928-0.393 2.747 1.498-1.428 1.288-5.241 1.943 0.477-1.429 5.809z" fill="#000000" />
	<path d="M10.728 17.46l-1.969-0.354 0.377-2.092-2.246-0.248 0.219-1.989 4.375 0.483z" fill="#000000" />
</svg>
