<?xml version="1.0" encoding="utf-8"?>
<!-- Generated by IcoMoon.io -->
<!DOCTYPE svg PUBLIC "-//W3C//DTD SVG 1.1//EN" "http://www.w3.org/Graphics/SVG/1.1/DTD/svg11.dtd">
<svg version="1.1" xmlns="http://www.w3.org/2000/svg" xmlns:xlink="http://www.w3.org/1999/xlink" width="32" height="32" viewBox="0 0 32 32">
<g>
</g>
	<path d="M22.772 16.224c-1.792 0-3.585-0.683-4.949-2.047-1.322-1.321-2.051-3.079-2.051-4.948-0.001-1.871 0.728-3.629 2.051-4.952l2.828-2.828 1.414 1.414-2.828 2.828c-0.945 0.945-1.465 2.201-1.465 3.536s0.521 2.591 1.465 3.535c1.948 1.948 5.121 1.95 7.071 0l2.828-2.828 1.414 1.414-2.828 2.828c-1.364 1.365-3.157 2.048-4.95 2.048z" fill="#000000" />
	<path d="M30.551 11.349l-2.121-2.121-0.707 0.707c-1.561 1.56-4.097 1.56-5.657 0-0.756-0.755-1.172-1.759-1.172-2.828 0-1.067 0.416-2.073 1.172-2.829l0.707-0.707-2.121-2.121 1.414-1.414 3.535 3.535-2.121 2.121c-0.378 0.379-0.586 0.881-0.586 1.415s0.208 1.036 0.586 1.413c0.378 0.379 0.88 0.587 1.414 0.587h0.001c0.534 0 1.036-0.208 1.414-0.586l2.121-2.121 3.535 3.535-1.414 1.414z" fill="#000000" />
	<path d="M4.031 25.969h2v2h-2v-2z" fill="#000000" />
	<path d="M14.568 13.624l3.967 3.922-1.406 1.422-3.967-3.922 1.406-1.422z" fill="#000000" />
	<path d="M5 32c-1.336 0-2.592-0.521-3.535-1.465-0.944-0.943-1.465-2.199-1.465-3.535s0.521-2.592 1.465-3.535l0.123-0.104 10.088-7.258 1.168 1.623-10.018 7.208c-0.533 0.558-0.826 1.29-0.826 2.066 0 0.801 0.313 1.555 0.879 2.121 1.115 1.117 3.050 1.137 4.188 0.053l7.209-10.016 1.623 1.168-7.364 10.209c-0.943 0.944-2.199 1.465-3.535 1.465z" fill="#000000" />
</svg>
